<?xml version="1.0" encoding="utf-8"?>
<!-- Generator: Adobe Illustrator 24.0.1, SVG Export Plug-In . SVG Version: 6.00 Build 0)  -->
<svg version="1.1" id="Layer_1" xmlns="http://www.w3.org/2000/svg" xmlns:xlink="http://www.w3.org/1999/xlink" x="0px" y="0px"
	 viewBox="0 0 317.9 288.9" style="enable-background:new 0 0 317.9 288.9;" xml:space="preserve">
<style type="text/css">
	.st0{fill:#F3F3F3;}
</style>
<g>
	<g>
		<path class="st0" d="M282.4,40.8c1.2-3.2,2.8-6,4.7-8.3c1.9-2.3,4.5-4.2,7.7-5.9c3.2-1.7,5.6-3.3,7-4.7c1.5-1.5,2.6-3.4,3.4-5.7
			c0.5-1.4,0.6-2.5,0.3-3.5c-0.3-1-1-1.7-2.1-2c-1.3-0.4-2.7-0.1-4,0.9s-2.6,2.6-3.6,4.8l-11.6-3.4c2.1-5.2,5.3-8.8,9.4-11
			s8.7-2.4,13.8-0.8c4.7,1.5,7.8,4.1,9.4,7.8s1.6,7.9-0.3,12.6c-1.6,4.2-5.1,7.8-10.5,10.8l-6.6,3.4c-2.8,1.7-5.2,4.3-7,8
			L282.4,40.8z M274.8,52.8c0.6-2,1.7-3.4,3.2-4.3c1.6-0.9,3.3-1.1,5.1-0.6c1.8,0.5,3.1,1.5,4,3c0.9,1.6,1,3.3,0.5,5.2
			c-0.6,1.9-1.6,3.4-3.2,4.3c-1.6,0.9-3.3,1.1-5.2,0.6c-1.9-0.6-3.2-1.6-4-3.2C274.4,56.1,274.3,54.5,274.8,52.8z"/>
		<path class="st0" d="M14.7,93.9c-0.8-3.4-1.1-6.5-0.7-9.4c0.3-2.9,1.3-6,3.1-9.2c1.7-3.2,2.8-5.8,3.2-7.8s0.3-4.2-0.4-6.6
			c-0.4-1.4-1-2.4-1.7-3.1c-0.8-0.7-1.7-0.9-2.8-0.5c-1.3,0.4-2.3,1.4-2.9,3c-0.6,1.6-0.7,3.6-0.3,6L0.6,69.7
			C-0.6,64.2,0,59.4,2.2,55.3s5.9-6.9,11-8.4c4.7-1.3,8.8-0.9,12.2,1.2c3.4,2.1,5.7,5.7,6.8,10.6c1,4.4,0.1,9.3-2.7,14.8l-3.5,6.5
			c-1.4,3-1.9,6.5-1.3,10.6L14.7,93.9z M15.1,108c-0.6-2-0.5-3.7,0.3-5.4c0.8-1.6,2.1-2.7,3.9-3.3c1.7-0.6,3.4-0.5,5,0.3
			c1.6,0.8,2.7,2.1,3.3,4c0.6,1.9,0.5,3.7-0.3,5.3s-2.1,2.8-4,3.4c-1.9,0.6-3.6,0.4-5.1-0.5C16.6,111,15.6,109.8,15.1,108z"/>
	</g>
	<g>
		<polygon class="st0" points="220.6,243.3 175.5,243.3 173,255.9 208,255.9 		"/>
		<polygon class="st0" points="144.9,255.9 142.4,243.3 121.2,243.3 119.9,243.3 119.1,242.4 116.8,240.2 116.4,240.2 111,234.8 
			97,242.9 109.9,255.9 		"/>
		<polygon class="st0" points="40.5,88.3 40.5,186.5 65.7,211.7 72.2,196 56.1,180 56.1,94.8 64.2,86.8 64.2,64.6 		"/>
		<rect x="157.4" y="240.2" class="st0" width="3" height="15.7"/>
		<rect x="157.4" y="260" class="st0" width="3" height="3.9"/>
		<polygon class="st0" points="64,215.8 36.4,188.2 36.4,86.6 108.2,14.8 147.2,14.8 148.8,10.9 108.2,10.9 106.6,10.9 105.4,12 
			33.6,83.8 32.5,85 32.5,86.6 32.5,188.2 32.5,189.8 33.6,190.9 62.4,219.7 		"/>
		<polygon class="st0" points="284.3,83.8 212.5,12 211.4,10.9 209.7,10.9 169.1,10.9 170.8,14.8 209.7,14.8 281.5,86.6 
			281.5,188.2 253.9,215.8 255.5,219.7 284.3,190.9 285.5,189.8 285.5,188.2 285.5,86.6 285.5,85 		"/>
		<polygon class="st0" points="224.6,245.1 209.7,260 172.2,260 171.4,263.9 209.7,263.9 211.4,263.9 212.5,262.8 228.1,247.1 		"/>
		<polygon class="st0" points="85.6,43.2 107.7,43.2 116.4,34.6 139,34.6 145.4,18.9 109.9,18.9 		"/>
		<polygon class="st0" points="145.7,260 108.2,260 93.3,245.1 89.8,247.1 105.4,262.8 106.6,263.9 108.2,263.9 146.5,263.9 		"/>
		<polygon class="st0" points="277.4,88.3 208,18.9 172.5,18.9 179,34.6 201.5,34.6 261.8,94.8 261.8,180 253.7,188 253.7,210.2 
			277.4,186.5 		"/>
	</g>
	<g>
		<path class="st0" d="M199.8,85H212v29.4l38.8,93.9V89.1c-16.7-16.7-26.1-26.1-42.9-42.9h-24.2L199.8,85z"/>
		<path class="st0" d="M106,114.4V85h12.2l16.1-38.8H81.4c-5.6,5.6-8.7,8.7-14.3,14.3v125.8c2.2,2.2,4.4,4.4,6.4,6.4L106,114.4z"/>
		<path class="st0" d="M170.6,213.9l-0.1-0.1c-2.2,2.2-4.4,4.4-7.1,7.1v68l9.7-48.5h43.3L170.6,213.9z"/>
		<path class="st0" d="M147.3,213.9l-33.3,19.3c2.3,2.3,4.7,4.7,7.2,7.2h23.6l9.7,48.5v-79.2L147.3,213.9z"/>
	</g>
	<polygon id="A_1_" class="st0" points="263,258.2 159,6.7 55,258.2 143.4,207.1 98.1,207.1 149.5,82.8 159,82.8 168.4,82.8 
		219.8,207.1 174.5,207.1 	"/>
	<path class="st0" d="M147.8,181.8c0,5.9-1.1,10.3-3.2,13.5c-2.1,3.1-5.2,4.7-9.1,4.7c-3.9,0-6.9-1.5-9-4.5c-2.1-3-3.2-7.3-3.3-13
		v-8c0-5.8,1.1-10.3,3.2-13.4c2.1-3.1,5.2-4.6,9.1-4.6c4,0,7,1.5,9.1,4.6c2.1,3.1,3.2,7.4,3.2,13.1V181.8z M139.6,173.2
		c0-3.3-0.3-5.8-1-7.5c-0.7-1.7-1.7-2.5-3.1-2.5c-2.6,0-4,3.1-4.1,9.2V183c0,3.4,0.3,6,1,7.6c0.7,1.7,1.7,2.5,3.1,2.5
		c1.3,0,2.3-0.8,3-2.3c0.7-1.6,1-4,1-7.2V173.2z"/>
	<path class="st0" d="M158.9,191.4l2.7-13.5h5.8l-5.9,21.4h-5.3l-5.9-21.4h5.9L158.9,191.4z"/>
	<path class="st0" d="M194.7,181.8c0,5.9-1.1,10.3-3.2,13.5c-2.1,3.1-5.2,4.7-9.1,4.7c-3.9,0-6.9-1.5-9-4.5c-2.1-3-3.2-7.3-3.3-13
		v-8c0-5.8,1.1-10.3,3.2-13.4c2.1-3.1,5.2-4.6,9.1-4.6c4,0,7,1.5,9.1,4.6c2.1,3.1,3.2,7.4,3.2,13.1V181.8z M186.4,173.2
		c0-3.3-0.3-5.8-1-7.5c-0.7-1.7-1.7-2.5-3.1-2.5c-2.6,0-4,3.1-4.1,9.2V183c0,3.4,0.3,6,1,7.6c0.7,1.7,1.7,2.5,3.1,2.5
		c1.3,0,2.3-0.8,3-2.3c0.7-1.6,1-4,1-7.2V173.2z"/>
</g>
</svg>
