<?xml version="1.0" encoding="utf-8"?>
<!-- Generator: Adobe Illustrator 24.0.1, SVG Export Plug-In . SVG Version: 6.00 Build 0)  -->
<svg version="1.1" id="Layer_1" xmlns="http://www.w3.org/2000/svg" xmlns:xlink="http://www.w3.org/1999/xlink" x="0px" y="0px"
	 viewBox="0 0 318.1 86" style="enable-background:new 0 0 318.1 86;" xml:space="preserve">
<style type="text/css">
	.st0{fill:#0D0D0D;}
	.st1{fill:#F2F2F2;}
</style>
<rect y="0" class="st0" width="73" height="73"/>
<rect x="73" y="0" class="st0" width="225" height="73"/>
<g>
	<polygon class="st1" points="73,64.8 11.4,3.3 14.6,0 11.8,0 8.6,3.3 73,67.6 	"/>
	<polygon class="st1" points="73,44.9 31.4,3.3 34.7,0 31.9,0 28.6,3.3 73,47.7 	"/>
	<polygon class="st1" points="73,54.9 21.4,3.3 24.7,0 21.9,0 18.6,3.3 73,57.7 	"/>
	<polygon class="st1" points="73,34.9 41.4,3.3 44.7,0 41.9,0 38.6,3.3 73,37.7 	"/>
	<polygon class="st1" points="73,14.9 61.4,3.3 64.7,0 61.9,0 58.6,3.3 73,17.7 	"/>
	<polygon class="st1" points="73,4.9 71.4,3.3 73,1.7 73,0 71.9,0 68.6,3.3 73,7.7 	"/>
	<polygon class="st1" points="73,24.9 51.4,3.3 54.7,0 51.9,0 48.6,3.3 73,27.7 	"/>
	<polygon class="st1" points="0,14.7 58.3,73 61.1,73 0,11.8 	"/>
	<polygon class="st1" points="0,24.7 48.3,73 51.1,73 0,21.8 	"/>
	<polygon class="st1" points="4.7,0 1.8,0 0,1.8 0,4.6 68.3,73 71.1,73 1.4,3.3 	"/>
	<polygon class="st1" points="0,44.7 28.3,73 31.1,73 0,41.8 	"/>
	<polygon class="st1" points="0,54.6 18.3,73 21.2,73 0,51.8 	"/>
	<polygon class="st1" points="0,34.7 38.3,73 41.1,73 0,31.8 	"/>
	<polygon class="st1" points="0,64.6 8.3,73 11.1,73 0,61.8 	"/>
</g>
<path class="st1" d="M112.3,16.4c0.6,2,1.2,4.2,1.9,6.7c0.7,2.5,1.4,5,2.2,7.7c0.8,2.6,1.6,5.3,2.4,7.9c0.8,2.6,1.6,5.1,2.4,7.3
	c0.6-2.4,1.3-5.1,1.9-8c0.7-2.9,1.3-5.9,1.8-8.9c0.6-3.1,1.1-6.1,1.7-9.2c0.6-3,1.1-6,1.6-8.8h11.7c-1.7,8.4-3.6,16.8-5.8,25.4
	S129.5,53.3,127,61h-10.3c-1.7-4.6-3.3-9.4-4.9-14.5s-3.1-10.1-4.7-15.2c-1.5,5.1-3.1,10.2-4.6,15.2c-1.5,5.1-3.1,9.9-4.8,14.5H87.4
	c-2.6-7.7-4.9-15.9-7.1-24.5s-4.1-17.1-5.8-25.4h12.2c0.5,2.8,1,5.8,1.6,8.8s1.2,6.1,1.8,9.2c0.6,3.1,1.3,6,1.9,8.9
	c0.7,2.9,1.3,5.5,2,8c0.9-2.4,1.7-4.8,2.5-7.5c0.8-2.6,1.6-5.3,2.4-7.9s1.5-5.2,2.1-7.6s1.2-4.6,1.8-6.6H112.3z M179.3,42
	c0,3-0.4,5.7-1.3,8.2c-0.9,2.5-2.1,4.6-3.7,6.3c-1.6,1.8-3.6,3.1-5.9,4.1c-2.3,1-4.8,1.4-7.7,1.4c-2.8,0-5.3-0.5-7.6-1.4
	c-2.3-1-4.2-2.3-5.9-4.1c-1.6-1.8-2.9-3.9-3.8-6.3c-0.9-2.5-1.4-5.2-1.4-8.2s0.5-5.7,1.4-8.1s2.2-4.5,3.9-6.3c1.7-1.7,3.6-3.1,5.9-4
	c2.3-1,4.8-1.4,7.5-1.4s5.2,0.5,7.5,1.4c2.3,1,4.2,2.3,5.9,4c1.6,1.7,2.9,3.8,3.8,6.3C178.9,36.3,179.3,39,179.3,42z M168.4,42
	c0-3.3-0.7-5.9-2-7.8c-1.3-1.9-3.2-2.8-5.7-2.8c-2.4,0-4.3,0.9-5.7,2.8c-1.3,1.9-2,4.5-2,7.8s0.7,5.9,2,7.9c1.3,1.9,3.2,2.9,5.7,2.9
	c2.4,0,4.3-1,5.7-2.9C167.7,47.9,168.4,45.3,168.4,42z M210.4,32.6c-1-0.2-2.1-0.5-3.4-0.8c-1.3-0.3-2.7-0.4-4.2-0.4
	c-0.7,0-1.5,0.1-2.4,0.2s-1.6,0.3-2.1,0.4v29h-10.7V25.1c1.9-0.7,4.2-1.3,6.8-1.9s5.5-0.9,8.7-0.9c0.6,0,1.3,0,2.1,0.1
	s1.6,0.2,2.4,0.3c0.8,0.1,1.6,0.3,2.4,0.4c0.8,0.2,1.5,0.4,2.1,0.6L210.4,32.6z M228.7,36.7c1.1-1.1,2.1-2.3,3.3-3.6
	c1.1-1.2,2.2-2.5,3.3-3.7s2-2.4,3-3.5c0.9-1.1,1.7-2.1,2.4-2.9h12.8c-2.5,2.9-5,5.7-7.5,8.4c-2.4,2.7-5.1,5.4-8,8.2
	c1.4,1.3,2.9,2.8,4.5,4.7c1.5,1.8,3,3.7,4.5,5.6c1.4,1.9,2.8,3.8,4,5.8c1.2,1.9,2.2,3.7,3,5.3h-12.3c-0.8-1.3-1.6-2.6-2.6-4.1
	s-2-3-3.1-4.5s-2.3-3-3.5-4.4s-2.4-2.6-3.6-3.5V61H218V6.9l10.7-1.7V36.7z M270.6,53.3c2,0,3.4-0.2,4.2-0.6c0.8-0.4,1.2-1.1,1.2-2.2
	c0-0.9-0.5-1.6-1.6-2.3c-1.1-0.6-2.7-1.4-4.8-2.2c-1.7-0.6-3.2-1.3-4.6-1.9c-1.4-0.7-2.5-1.5-3.5-2.4s-1.7-2.1-2.2-3.3
	c-0.5-1.3-0.8-2.9-0.8-4.7c0-3.6,1.3-6.4,4-8.4c2.6-2.1,6.3-3.1,10.9-3.1c2.3,0,4.5,0.2,6.6,0.6s3.8,0.9,5,1.3l-1.9,8.4
	c-1.2-0.4-2.6-0.8-4.1-1.2c-1.5-0.3-3.1-0.5-4.9-0.5c-3.4,0-5,0.9-5,2.8c0,0.4,0.1,0.8,0.2,1.2c0.1,0.3,0.4,0.7,0.9,1
	c0.4,0.3,1,0.7,1.8,1c0.7,0.4,1.7,0.8,2.8,1.2c2.4,0.9,4.3,1.7,5.8,2.6c1.5,0.8,2.7,1.8,3.6,2.7c0.9,1,1.5,2.1,1.9,3.3
	s0.5,2.6,0.5,4.2c0,3.7-1.4,6.6-4.2,8.5c-2.8,1.9-6.8,2.9-11.9,2.9c-3.4,0-6.2-0.3-8.4-0.9s-3.8-1.1-4.6-1.4l1.8-8.7
	c1.8,0.7,3.7,1.3,5.6,1.7C266.8,53.1,268.7,53.3,270.6,53.3z"/>
<rect x="242.9" y="50" class="st1" width="75.2" height="36"/>
<g>
	<path class="st0" d="M256.2,62.9c-0.1,0.3-0.4,0.6-1.1,0.7V84c-0.1,0.4-2.2,1.4-4.2,1.4h-1V67.1c-1.4,1.4-2.9,2.7-4.5,3.8l-0.4-0.3
		c3.1-4.7,6.3-12.2,8-19.4l6.8,2.2c-0.2,0.5-0.6,0.8-1.5,0.7c-1.3,3-2.7,5.6-4.3,8L256.2,62.9z M270,60.2v6.7h1.4l2.5-3.3
		c0,0,2.8,2.2,4.6,3.7c-0.1,0.4-0.5,0.6-1,0.6H270v6.9h1.6l2.7-3.6c0,0,3.1,2.4,5,4c-0.1,0.4-0.5,0.6-1.1,0.6H270V84
		c0,0.3-1.6,1.3-4.4,1.3h-1v-25c-2.5,3.6-5.4,6.4-8.6,8.5l-0.4-0.3c2.7-4.2,5.6-11,7.1-17.4l6.9,2.4c-0.2,0.5-0.6,0.8-1.5,0.7
		c-0.8,1.7-1.7,3.3-2.7,4.9h6.8l2.7-3.6c0,0,3.1,2.4,4.9,4c-0.1,0.4-0.5,0.6-1.1,0.6L270,60.2L270,60.2z M302.3,74.5
		c3.2,2.7,8.6,4.5,13.3,5.2v0.4c-1.8,0.4-3.1,2-3.6,4.2c-5-2-8.5-5.3-10.8-9.9H301v9.8c0,0.3-1.6,1.2-4.2,1.2h-1V78
		c-3.5,2.8-8.2,4.9-13.6,6.3l-0.2-0.4c4.6-2.3,8.4-5.9,10.7-9.4h-10.2l-0.3-1h13.6V70h-9.9l-0.3-1h10.2v-3.1h-11.7l-0.3-1h9.3
		c-0.4-0.1-0.8-0.4-1.2-0.7c0-1.7-0.6-3.4-1.3-4.6h-8.3l-0.3-1h6.6c-0.4-0.1-0.7-0.3-1.1-0.6c0-2-0.8-4.1-2-5.4l0.3-0.2
		c7.5,0.8,6.9,5.3,4.5,6.2h2.8v-7.3l5.6,0.5c0,0.4-0.3,0.8-1.1,0.9v6h1.8v-7.3l5.7,0.5c-0.1,0.4-0.3,0.8-1.1,0.9v6h0.9
		c0.7-1.9,1.3-4.6,1.6-6.6l6,1.8c-0.1,0.4-0.5,0.7-1.4,0.6c-1.3,1.3-3.5,2.9-5.5,4.1h2.8l2.4-2.8c0,0,2.7,1.9,4.5,3.2
		c-0.1,0.4-0.5,0.6-1,0.6h-10l3.7,1c-0.1,0.4-0.5,0.7-1.3,0.7c-1.3,1.2-3.3,2.6-5.3,3.6h5.2l2.5-3c0,0,2.8,2,4.5,3.4
		c-0.1,0.4-0.5,0.6-1,0.6H301v3h4.8l2.3-2.8c0,0,2.7,1.9,4.3,3.2c-0.1,0.4-0.5,0.6-1,0.6H301v3.5h6.8l2.6-3.1c0,0,2.8,2.1,4.6,3.5
		c-0.1,0.4-0.5,0.6-1,0.6H302.3z M293.2,59.5c4.4,1.4,3.6,4.6,1.5,5.3h5.7c0.6-1.5,1.1-3.6,1.4-5.3
		C301.8,59.5,293.2,59.5,293.2,59.5z"/>
</g>
</svg>
