<?xml version="1.0" encoding="utf-8"?>
<!-- Generator: Adobe Illustrator 24.0.1, SVG Export Plug-In . SVG Version: 6.00 Build 0)  -->
<svg version="1.1" id="Layer_1" xmlns="http://www.w3.org/2000/svg" xmlns:xlink="http://www.w3.org/1999/xlink" x="0px" y="0px"
	 viewBox="0 0 376.3 87" style="enable-background:new 0 0 376.3 87;" xml:space="preserve">
<style type="text/css">
	.st0{fill:#0d0d0d;}
	.st1{fill:#f2f2f2;}
</style>
<rect class="st0" width="73" height="73"/>
<rect x="73" class="st0" width="279" height="73"/>
<g>
	<polygon class="st1" points="73,44.9 31.4,3.3 34.7,0 31.9,0 28.6,3.3 73,47.7 	"/>
	<polygon class="st1" points="73,4.9 71.4,3.3 73,1.7 73,0 71.9,0 68.6,3.3 73,7.7 	"/>
	<polygon class="st1" points="73,54.9 21.4,3.3 24.7,0 21.9,0 18.6,3.3 73,57.7 	"/>
	<polygon class="st1" points="73,34.9 41.4,3.3 44.7,0 41.9,0 38.6,3.3 73,37.7 	"/>
	<polygon class="st1" points="73,14.9 61.4,3.3 64.7,0 61.9,0 58.6,3.3 73,17.7 	"/>
	<polygon class="st1" points="73,24.9 51.4,3.3 54.7,0 51.9,0 48.6,3.3 73,27.7 	"/>
	<polygon class="st1" points="73,64.8 11.4,3.3 14.6,0 11.8,0 8.6,3.3 73,67.6 	"/>
	<polygon class="st1" points="0,34.7 38.3,73 41.1,73 0,31.8 	"/>
	<polygon class="st1" points="0,14.7 58.3,73 61.1,73 0,11.8 	"/>
	<polygon class="st1" points="4.7,0 1.8,0 0,1.8 0,4.6 68.3,73 71.1,73 1.4,3.3 	"/>
	<polygon class="st1" points="0,24.7 48.3,73 51.1,73 0,21.8 	"/>
	<polygon class="st1" points="0,44.7 28.3,73 31.1,73 0,41.8 	"/>
	<polygon class="st1" points="0,54.6 18.3,73 21.2,73 0,51.8 	"/>
	<polygon class="st1" points="0,64.6 8.3,73 11.1,73 0,61.8 	"/>
</g>
<path class="st1" d="M101.5,63c-8.1,0-14.3-2.3-18.5-6.8S76.6,45.3,76.6,37c0-4.1,0.6-7.8,1.9-11.1c1.3-3.2,3.1-6,5.3-8.2
	c2.3-2.2,4.9-3.9,8.1-5.1c3.1-1.2,6.5-1.7,10.2-1.7c2.1,0,4,0.2,5.8,0.5c1.7,0.3,3.2,0.7,4.5,1.1c1.3,0.4,2.4,0.8,3.2,1.3
	c0.9,0.4,1.5,0.8,1.9,1l-3.2,9.1c-1.5-0.8-3.3-1.5-5.4-2.1c-2-0.6-4.4-0.9-6.9-0.9c-1.7,0-3.4,0.3-5.1,0.9s-3.1,1.5-4.4,2.8
	s-2.3,2.9-3.1,4.9c-0.8,2-1.2,4.5-1.2,7.3c0,2.3,0.3,4.5,0.8,6.4c0.5,2,1.3,3.7,2.4,5.1c1.1,1.4,2.6,2.6,4.4,3.4
	c1.8,0.8,4,1.3,6.6,1.3c1.6,0,3.1-0.1,4.4-0.3s2.4-0.4,3.5-0.7c1-0.3,1.9-0.6,2.7-0.9c0.8-0.3,1.5-0.6,2.1-0.9l3.1,9
	c-1.6,1-3.8,1.8-6.7,2.6C108.6,62.6,105.3,63,101.5,63z M159.3,43c0,3-0.4,5.7-1.3,8.2c-0.9,2.5-2.1,4.6-3.7,6.3
	c-1.6,1.8-3.6,3.1-5.9,4.1c-2.3,1-4.8,1.4-7.7,1.4c-2.8,0-5.3-0.5-7.6-1.4c-2.3-1-4.2-2.3-5.9-4.1c-1.6-1.8-2.9-3.9-3.8-6.3
	c-0.9-2.5-1.4-5.2-1.4-8.2s0.5-5.7,1.4-8.1c0.9-2.4,2.2-4.5,3.9-6.3c1.7-1.7,3.6-3.1,5.9-4c2.3-1,4.8-1.4,7.5-1.4s5.2,0.5,7.5,1.4
	c2.3,1,4.2,2.3,5.9,4c1.6,1.7,2.9,3.8,3.8,6.3C158.8,37.3,159.3,40,159.3,43z M148.3,43c0-3.3-0.7-5.9-2-7.8
	c-1.3-1.9-3.2-2.8-5.7-2.8c-2.4,0-4.3,0.9-5.7,2.8c-1.3,1.9-2,4.5-2,7.8s0.7,5.9,2,7.9c1.3,1.9,3.2,2.9,5.7,2.9c2.4,0,4.3-1,5.7-2.9
	C147.7,48.9,148.3,46.3,148.3,43z M167.5,25.4c1.8-0.5,4.2-1,7.1-1.5c2.9-0.5,5.9-0.7,9.1-0.7c3.2,0,5.9,0.4,8,1.3
	c2.1,0.8,3.8,2,5.1,3.6c1.2,1.5,2.1,3.4,2.7,5.5c0.5,2.1,0.8,4.5,0.8,7.1V62h-10.7V41.9c0-3.5-0.5-5.9-1.4-7.3
	c-0.9-1.4-2.6-2.2-5.1-2.2c-0.8,0-1.6,0-2.4,0.1c-0.9,0.1-1.6,0.2-2.3,0.3V62h-10.7V25.4H167.5z M209.6,14.7l10.7-1.7v11.2h12.9v8.9
	h-12.9v13.3c0,2.3,0.4,4.1,1.2,5.4c0.8,1.3,2.4,2,4.8,2c1.2,0,2.3-0.1,3.6-0.3c1.2-0.2,2.3-0.5,3.3-0.9l1.5,8.4
	c-1.3,0.5-2.7,1-4.3,1.4s-3.5,0.6-5.8,0.6c-2.9,0-5.4-0.4-7.3-1.2c-1.9-0.8-3.5-1.9-4.6-3.3c-1.2-1.4-2-3.1-2.4-5.1
	c-0.5-2-0.7-4.2-0.7-6.7V14.7z M254.1,23.1c3.2,0,5.8,0.4,7.9,1.1s3.8,1.8,5.1,3.1c1.3,1.3,2.2,3,2.7,4.9c0.5,1.9,0.8,4.1,0.8,6.4
	v22.3c-1.5,0.3-3.7,0.7-6.4,1.2c-2.7,0.5-6,0.7-9.9,0.7c-2.4,0-4.7-0.2-6.7-0.6c-2-0.4-3.7-1.1-5.1-2.1c-1.4-1-2.5-2.3-3.3-3.9
	c-0.8-1.6-1.2-3.5-1.2-5.8c0-2.2,0.4-4.1,1.3-5.6c0.9-1.5,2.1-2.8,3.6-3.7s3.2-1.6,5.1-2c1.9-0.4,3.9-0.6,6-0.6
	c1.4,0,2.6,0.1,3.7,0.2c1.1,0.1,2,0.3,2.6,0.5v-1c0-1.8-0.6-3.3-1.7-4.4c-1.1-1.1-3-1.7-5.8-1.7c-1.8,0-3.6,0.1-5.4,0.4
	c-1.8,0.3-3.3,0.6-4.6,1.1l-1.4-8.6c0.6-0.2,1.4-0.4,2.3-0.6c0.9-0.2,2-0.4,3.1-0.6s2.3-0.3,3.5-0.4
	C251.6,23.2,252.8,23.1,254.1,23.1z M254.9,54.5c1.1,0,2.1,0,3-0.1c1,0,1.7-0.1,2.3-0.2v-8.1c-0.4-0.1-1.1-0.2-1.9-0.3
	c-0.9-0.1-1.7-0.1-2.4-0.1c-1,0-2,0.1-2.8,0.2c-0.9,0.1-1.7,0.3-2.3,0.7c-0.7,0.3-1.2,0.8-1.6,1.4c-0.4,0.6-0.6,1.3-0.6,2.2
	c0,1.7,0.6,2.8,1.7,3.5C251.4,54.2,253,54.5,254.9,54.5z M278.5,43.1c0-2.7,0.4-5.3,1.3-7.7s2.2-4.5,3.9-6.3
	c1.7-1.8,3.7-3.2,6.1-4.3c2.4-1.1,5.1-1.6,8.2-1.6c2,0,3.9,0.2,5.5,0.5c1.7,0.4,3.3,0.9,4.9,1.5l-2.2,8.6c-1-0.4-2.1-0.7-3.3-1
	c-1.2-0.3-2.5-0.4-4-0.4c-3.2,0-5.5,1-7.1,3s-2.3,4.6-2.3,7.8c0,3.4,0.7,6,2.2,7.9s4,2.8,7.7,2.8c1.3,0,2.7-0.1,4.2-0.4
	c1.5-0.2,2.9-0.6,4.1-1.2l1.5,8.8c-1.2,0.5-2.8,1-4.7,1.4c-1.9,0.4-3.9,0.6-6.2,0.6c-3.5,0-6.4-0.5-8.9-1.5s-4.5-2.4-6.2-4.2
	c-1.6-1.8-2.8-3.9-3.5-6.3C278.9,48.5,278.5,45.9,278.5,43.1z M315.9,14.7l10.7-1.7v11.2h12.9v8.9h-12.9v13.3c0,2.3,0.4,4.1,1.2,5.4
	c0.8,1.3,2.4,2,4.8,2c1.2,0,2.3-0.1,3.6-0.3c1.2-0.2,2.3-0.5,3.3-0.9L341,61c-1.3,0.5-2.7,1-4.3,1.4s-3.5,0.6-5.8,0.6
	c-2.9,0-5.4-0.4-7.3-1.2s-3.5-1.9-4.6-3.3c-1.2-1.4-2-3.1-2.4-5.1c-0.5-2-0.7-4.2-0.7-6.7L315.9,14.7L315.9,14.7z"/>
<rect x="149.7" y="51" class="st1" width="226.6" height="36"/>
<g>
	<path class="st0" d="M169,70.7c2.7-1.2,5.4-2,8.7-2c5,0,8.6,2.7,8.6,7.7c0,3.9-3.1,7.5-8.3,7.5c-3.7,0-5.7-2.5-7-5.7l0.4-0.3
		c1.2,1.2,2.9,2.2,5.4,2.2c2.8,0,4.9-1.9,4.9-5c0-2.3-1.3-4.6-5-4.6c-2.4,0-5.1,1.3-7.6,2.9c0.2,5.4,0.8,6.6,0.8,8
		c0,1.9-1.6,4.6-3.3,4.6c-1.5,0-1.4-1.7-2.5-2.8c-1-1.1-2.1-1.9-3-2.6c-0.9,1.1-1.3,2.1-2.1,2.1c-0.7,0-1.3-0.4-1.8-0.9
		c-0.8-0.8-1.2-1.8-1.2-2.9c0-1.7,0.4-2,1.5-2c0.8,0,1.4-0.2,2.2-0.5c1-0.5,3.6-2.5,6.2-4V69v-2c-1.3,0.3-2.7,0.5-3.7,0.5
		c-2.5,0-4.5-1.2-5.3-5.3l0.4-0.3c1.6,1.5,2.6,1.9,4.2,1.8c1.2,0,2.9-0.4,4.4-0.9c0-1.9,0-3.7,0-4.6c0-1.2-0.3-1.4-0.9-1.7
		c-0.7-0.3-1.6-0.4-2.7-0.6l-0.1-0.4c1.1-1,2.1-1.5,3.7-1.5c2.2,0,5.1,1.4,5.1,2.5c0,1-0.6,1.7-0.8,2.9c-0.1,0.5-0.2,1.2-0.4,2
		c1.4-0.7,2.1-1.2,2.4-1.3c0.4,0,3.6-0.1,3.7,2c0,0.8-0.5,1.5-1.5,2c-1.2,0.6-3.2,1.3-5.1,1.9c-0.1,1.3-0.2,2.6-0.2,3.7L169,70.7
		L169,70.7z M165.8,75.6c-1.4,1.2-2.9,2.7-4,3.9c1.2,0.4,2.2,0.8,3,0.8c0.8,0.1,1-0.1,1-0.8V75.6z M177.1,59.4
		c1.3-0.6,3.3-1.1,5.4-0.9c3.9,0.5,6.4,3.1,6.4,5.9c0,1.3-0.8,2.5-2.4,2.5c-0.9,0-2-1.4-2.8-1.3c-0.9,0-2.5,0.5-3.3,0.7l-0.2-0.4
		c0.7-0.5,2.2-1.6,2.6-2.1c0.5-0.5,0.6-0.9,0.3-1.5c-0.9-1.7-3.8-2.5-5.8-2.4L177.1,59.4z M197.4,64.8v19.8c0,0.6-1.8,1.8-4.1,1.8
		h-0.8V52.8l5,2.1h4.2l2.1-2.2l4.3,3.2c-0.2,0.3-0.6,0.6-1.3,0.7v9.8c0,0.3-2.4,1.1-3.9,1.1h-0.8v-2.7H197.4z M197.4,55.9v3.4h4.8
		v-3.4H197.4z M202.1,63.8v-3.5h-4.8v3.5H202.1z M215.4,79.5c0,0.3-2.4,1.3-4,1.3h-0.9v-2.2H205v1.5c0,0.4-2.1,1.5-4.1,1.5h-0.7
		V68.3l4.9,1.9h5l2.2-2.3l4.4,3.3c-0.2,0.3-0.6,0.5-1.3,0.7L215.4,79.5L215.4,79.5z M210.5,77.7v-6.4H205v6.4H210.5z M225,56
		c-0.3,0.3-0.7,0.6-1.4,0.8V81c0,3.2-0.7,4.8-5.8,5.1c-0.1-1.4-0.2-2.5-0.6-3.1s-1-1.1-2.5-1.4v-0.5c0,0,2.7,0.2,3.3,0.2
		c0.5,0,0.6-0.3,0.6-0.7V64.8h-4.8v0.8c0,0.4-2.1,1.5-4,1.5H209V53l4.9,1.9h4.3l2.2-2.6L225,56z M213.7,55.9v3.4h4.8v-3.4H213.7z
		 M218.6,63.8v-3.5h-4.8v3.5H218.6z M232.3,63.3c0-2.1-1.2-3.9-2.8-5.3l0.1-0.4c1-0.1,2.7-0.1,4,0.4c2.1,0.9,4.4,3.1,4.4,4.9
		s-2.2,3.7-2.2,8.7c0,2.4,1.4,4,2.4,4.4c0.5,0.2,1.1,0.2,1.5-0.4c1.3-1.7,2.6-3.9,4-6.3l0.6,0.3c-0.8,3-1.4,6.1-1.4,7.4
		c0.1,2.5,0.6,2.3,0.6,3.6c0,2-2.1,3-4.8,1.9c-3-1.2-6-4.5-6.6-9.8C231.9,69.8,232.3,66.2,232.3,63.3z M249.2,61.4l0.1-0.5
		c4,0,6.3,1.3,8.7,3.4c2.3,2,3.2,4.8,3.2,7.7c0,2.7-0.9,4.2-3.1,4.2c-0.9,0-1.8-0.4-2.2-1.4c-0.5-1.5-0.2-2.9-1-6.2
		C254.2,65.8,252.3,62.9,249.2,61.4z M285,54c-0.2,0.5-0.6,0.8-1.9,0.9c3.2,4.3,9.9,6.2,15,7.2v0.6c-2.2,0.7-3.6,3-3.9,4.9
		c-5.3-2.6-9.7-6.4-11.7-12.3c-3.4,5.7-11,11.2-18.5,13.8l-0.2-0.4c6.2-3.9,12.4-11.4,13.7-16.5L285,54z M289,70.1l5,3.8
		c-0.3,0.3-0.7,0.6-1.5,0.8v10.1c0,0.3-2.8,1.2-4.6,1.2H287v-2.8h-11.7v1.5c0,0.5-2.4,1.7-4.7,1.7h-0.8V70.6l5.8,2.2h11.1L289,70.1z
		 M284.6,63c0,0,3.1,2.4,4.9,4.1c-0.1,0.4-0.5,0.6-1,0.6H273l-0.3-1h9.2L284.6,63z M287,82.2v-8.4h-11.7v8.4H287z M307,54.1
		c1.1-0.5,2.1-0.9,3.2-0.9c2.4,0,5.1,2.3,5.1,3.9c0,0.7-0.5,1.5-0.9,2.5c-0.1,0.3-0.2,0.5-0.3,0.9c0.1,0,0.3,0.1,0.5,0.2
		c0.8,0.4,1.6,1.2,1.6,1.7s-0.3,1-0.8,1.5s-1.2,1.2-1.9,2c3.7-2,6.9-2.8,9.6-2.8c5,0,10.2,3.3,10.2,9.1c0,5-3.2,10.5-15.9,12.4
		l-0.2-0.5c9.4-3.9,10.7-9.8,10.7-13.1c0-4.2-2.2-6.2-5.8-6.2c-2.7,0-6.6,1.7-9.4,4.2v0.3c-0.1,2.3,0.1,5.8,0.4,8.1
		c0.2,1.7,0.4,2.4,0.4,3.6c0,2.6-1.3,4.6-2.9,4.6s-2.1-0.8-2.3-1.9c-0.2-1-0.4-2.1-0.9-3.3c-0.3-0.6-0.6-1.3-1-1.9l-0.5,0.8
		c-0.8,1.2-1.4,2.3-2.5,2.3c-0.9,0-1.9-0.8-1.9-2.4c0-1.2,0.4-2.2,1.2-3c1.8-1.8,4.8-5.3,7.2-8.9c0-0.4,0.1-0.9,0.1-1.4
		c-0.8,0.5-1.5,0.9-1.9,1.2c-0.7,0.5-1,1.4-1.8,1.4c-1.9,0-3.8-2.1-4.3-3.7c-0.2-0.6-0.1-1.4,0-2.1l0.4-0.1c0.7,0.8,1.2,1.3,2.1,1.3
		c1,0,3.7-1,5.9-1.9c0.2-2.1,0.3-3.9,0.3-4.7s-0.3-1-0.9-1.4c-0.5-0.3-1.3-0.7-2.4-1v-0.8H307z M309.1,77.7c0-1,0.1-2.7,0.2-4.5
		c-0.8,1.3-1.7,2.6-2.5,4c0.6,0.4,1.1,0.8,1.4,1C308.7,78.6,309.1,78.5,309.1,77.7z M354.4,55.4c1-0.9,2.3-1.6,3.3-1.6
		c2.5,0,5.4,2.2,5.4,3.6c0,0.8-0.8,1.4-1,2.8c-0.1,0.6-0.2,1.4-0.3,2.2c2.6-0.6,3.3-0.8,3.6-0.8c2,0,4.8,1.1,4.8,3.2
		c0,1.4-0.9,1.8-2.5,1.8c-1.8,0-2.8-0.6-6.2-0.4c-0.1,2.3-0.4,5.5-0.8,7c-0.5,1.8-2,3.4-4.1,3.4c-1.1,0-1.7-0.4-2.1-1.6
		c-0.5-1.4-2.1-2.5-3.6-3.5l0.1-0.4c1.9,0.4,3.9,0.8,4.6,0.8c0.9,0,1.3,0,1.6-1.2c0.2-0.8,0.3-2.6,0.4-4c-2.8,0.5-6,1.2-8.6,2.1
		c-0.2,3-0.4,6.4-0.3,7.8c0,2.7,0.6,3.4,4,3.4c4.5,0,8.3-1.3,8.9-1.3c1.8,0,3.8,0.8,3.8,2.7c0,1-0.8,1.8-2.5,2.3
		c-1.7,0.4-4.2,0.6-7.4,0.6c-6.6,0-10.3-1-10.5-6.2c-0.1-1.9-0.1-4.6-0.1-7.6c-2.8,1.3-4.4,2.3-5.5,2.3c-1.3,0-2.7-1.5-3.5-3.1
		c-0.4-0.8-0.4-1.8-0.3-3l0.5-0.2c0.9,1,1.6,1.3,2.5,1.3c0.7,0,3.5-0.6,6.2-1.3c0-1.9-0.1-3.8-0.3-5.3c-0.1-1-0.3-1.4-0.8-1.7
		c-0.6-0.4-1.4-0.5-2.1-0.7l-0.1-0.4c1-0.7,2.4-1.4,3.5-1.4c2.7,0,5.5,2.4,5.5,3.7c0,0.9-0.8,1.2-1.1,2.6c-0.1,0.4-0.2,1.1-0.3,1.9
		c2.8-0.7,6-1.5,8.5-2.1c0.1-1.8,0.1-4.2,0-5.8c0-0.7-0.4-1.1-1.2-1.3c-0.7-0.3-1.3-0.3-2.1-0.5L354.4,55.4z"/>
</g>
</svg>
