<?xml version="1.0" encoding="utf-8"?>
<!-- Generator: Adobe Illustrator 24.0.1, SVG Export Plug-In . SVG Version: 6.00 Build 0)  -->
<svg version="1.1" id="Layer_1" xmlns="http://www.w3.org/2000/svg" xmlns:xlink="http://www.w3.org/1999/xlink" x="0px" y="0px"
	 viewBox="0 0 354.8 88" style="enable-background:new 0 0 354.8 88;" xml:space="preserve">
<style type="text/css">
	.st0{fill:#171717;}
	.st1{fill:#FAFAFA;}
	.st2{fill:#F2F2F2;}
</style>
<rect y="0" class="st0" width="73" height="73"/>
<rect x="73" y="0" class="st0" width="257" height="73"/>
<g>
	<polygon class="st1" points="73,44.9 31.4,3.3 34.7,0 31.9,0 28.6,3.3 73,47.7 	"/>
	<polygon class="st1" points="73,64.8 11.4,3.3 14.6,0 11.8,0 8.6,3.3 73,67.6 	"/>
	<polygon class="st1" points="73,34.9 41.4,3.3 44.7,0 41.9,0 38.6,3.3 73,37.7 	"/>
	<polygon class="st1" points="73,54.9 21.4,3.3 24.7,0 21.9,0 18.6,3.3 73,57.7 	"/>
	<polygon class="st1" points="73,4.9 71.4,3.3 73,1.7 73,0 71.9,0 68.6,3.3 73,7.7 	"/>
	<polygon class="st1" points="73,24.9 51.4,3.3 54.7,0 51.9,0 48.6,3.3 73,27.7 	"/>
	<polygon class="st1" points="73,14.9 61.4,3.3 64.7,0 61.9,0 58.6,3.3 73,17.7 	"/>
	<polygon class="st1" points="0,44.7 28.3,73 31.1,73 0,41.8 	"/>
	<polygon class="st1" points="0,24.7 48.3,73 51.1,73 0,21.8 	"/>
	<polygon class="st1" points="0,14.7 58.3,73 61.1,73 0,11.8 	"/>
	<polygon class="st1" points="4.7,0 1.8,0 0,1.8 0,4.6 68.3,73 71.1,73 1.4,3.3 	"/>
	<polygon class="st1" points="0,54.6 18.3,73 21.2,73 0,51.8 	"/>
	<polygon class="st1" points="0,64.6 8.3,73 11.1,73 0,61.8 	"/>
	<polygon class="st1" points="0,34.7 38.3,73 41.1,73 0,31.8 	"/>
</g>
<path class="st1" d="M103.1,22.7c-5.2,0-9,1.5-11.3,4.4C89.4,30,88.3,34,88.3,39c0,2.4,0.3,4.7,0.9,6.7s1.4,3.7,2.6,5.1
	c1.2,1.4,2.6,2.6,4.3,3.3s3.7,1.2,6,1.2c1.2,0,2.3,0,3.2-0.1c0.9,0,1.7-0.1,2.3-0.3V37.6h11.2v24.7c-1.3,0.5-3.5,1.1-6.5,1.7
	c-3,0.6-6.6,0.9-11,0.9c-3.7,0-7.1-0.6-10.2-1.7c-3-1.2-5.7-2.8-7.8-5c-2.2-2.2-3.8-4.9-5-8.1s-1.8-6.9-1.8-11
	c0-4.2,0.6-7.9,1.9-11.1s3.1-5.9,5.3-8.2c2.3-2.2,4.9-3.9,8-5.1c3-1.2,6.3-1.7,9.8-1.7c2.4,0,4.5,0.2,6.4,0.5s3.5,0.7,4.9,1.1
	c1.4,0.4,2.5,0.8,3.4,1.3c0.9,0.4,1.5,0.8,1.9,1l-3.2,9c-1.5-0.8-3.3-1.5-5.3-2.1C107.6,23,105.4,22.7,103.1,22.7z M142.2,25.1
	c3.2,0,5.8,0.4,7.9,1.1c2.1,0.7,3.8,1.8,5.1,3.1c1.3,1.3,2.2,3,2.7,4.9c0.5,1.9,0.8,4.1,0.8,6.4v22.3c-1.5,0.3-3.7,0.7-6.4,1.2
	c-2.7,0.5-6,0.7-9.9,0.7c-2.4,0-4.7-0.2-6.7-0.6s-3.7-1.1-5.1-2.1c-1.4-1-2.5-2.3-3.3-3.9c-0.8-1.6-1.2-3.5-1.2-5.8
	c0-2.2,0.4-4.1,1.3-5.6c0.9-1.5,2.1-2.8,3.6-3.7s3.2-1.6,5.1-2c1.9-0.4,3.9-0.6,6-0.6c1.4,0,2.6,0.1,3.7,0.2c1.1,0.1,2,0.3,2.6,0.5
	v-1c0-1.8-0.6-3.3-1.7-4.4c-1.1-1.1-3-1.7-5.8-1.7c-1.8,0-3.6,0.1-5.4,0.4c-1.8,0.3-3.3,0.6-4.6,1.1l-1.4-8.6
	c0.6-0.2,1.4-0.4,2.3-0.6c0.9-0.2,2-0.4,3.1-0.6s2.3-0.3,3.5-0.4C139.7,25.2,140.9,25.1,142.2,25.1z M143.1,56.5c1.1,0,2.1,0,3-0.1
	c1,0,1.7-0.1,2.3-0.2v-8.1c-0.4-0.1-1.1-0.2-1.9-0.3c-0.9-0.1-1.7-0.1-2.4-0.1c-1,0-2,0.1-2.8,0.2c-0.9,0.1-1.7,0.3-2.3,0.7
	c-0.7,0.3-1.2,0.8-1.6,1.4c-0.4,0.6-0.6,1.3-0.6,2.2c0,1.7,0.6,2.8,1.7,3.5C139.5,56.2,141.1,56.5,143.1,56.5z M183.5,64.7
	c-3.1,0-5.7-0.4-7.6-1c-1.9-0.6-3.5-1.5-4.6-2.6s-1.9-2.5-2.3-4.1c-0.4-1.6-0.6-3.4-0.6-5.4V9.9l10.7-1.7v41.3c0,1,0.1,1.8,0.2,2.6
	c0.1,0.8,0.4,1.4,0.8,1.9c0.4,0.5,1,1,1.8,1.3s1.8,0.6,3.1,0.6L183.5,64.7z M206.3,64.7c-3.1,0-5.7-0.4-7.6-1
	c-1.9-0.6-3.5-1.5-4.6-2.6s-1.9-2.5-2.3-4.1c-0.4-1.6-0.6-3.4-0.6-5.4V9.9l10.7-1.7v41.3c0,1,0.1,1.8,0.2,2.6
	c0.1,0.8,0.4,1.4,0.8,1.9c0.4,0.5,1,1,1.8,1.3s1.8,0.6,3.1,0.6L206.3,64.7z M212.1,45.4c0-3.4,0.5-6.3,1.5-8.8s2.4-4.6,4.1-6.3
	c1.7-1.7,3.6-3,5.8-3.8c2.2-0.9,4.4-1.3,6.7-1.3c5.4,0,9.6,1.6,12.7,4.9c3.1,3.3,4.7,8.1,4.7,14.5c0,0.6,0,1.3-0.1,2.1
	c0,0.7-0.1,1.4-0.1,2h-24.3c0.2,2.2,1.3,4,3.1,5.3s4.3,1.9,7.3,1.9c2,0,3.9-0.2,5.8-0.5c1.9-0.4,3.4-0.8,4.6-1.3l1.4,8.7
	c-0.6,0.3-1.3,0.6-2.3,0.9c-1,0.3-2,0.5-3.2,0.8c-1.2,0.2-2.4,0.4-3.8,0.5c-1.3,0.1-2.7,0.2-4,0.2c-3.4,0-6.4-0.5-8.9-1.5
	s-4.6-2.4-6.3-4.1c-1.7-1.8-2.9-3.8-3.7-6.2C212.5,50.7,212.1,48.1,212.1,45.4z M237.3,41.2c0-0.9-0.2-1.8-0.5-2.7s-0.7-1.6-1.2-2.3
	c-0.6-0.7-1.2-1.2-2.1-1.7c-0.8-0.4-1.9-0.6-3.1-0.6c-1.2,0-2.2,0.2-3.1,0.6c-0.9,0.4-1.6,0.9-2.2,1.6c-0.6,0.7-1,1.5-1.3,2.3
	c-0.3,0.9-0.5,1.8-0.7,2.7h14.2L237.3,41.2L237.3,41.2z M278.8,35.6c-1-0.2-2.1-0.5-3.4-0.8s-2.7-0.4-4.2-0.4
	c-0.7,0-1.5,0.1-2.4,0.2c-0.9,0.1-1.6,0.3-2.1,0.4v29H256V28.1c1.9-0.7,4.2-1.3,6.8-1.9c2.6-0.6,5.5-0.9,8.7-0.9
	c0.6,0,1.3,0,2.1,0.1c0.8,0.1,1.6,0.2,2.4,0.3c0.8,0.1,1.6,0.3,2.4,0.4c0.8,0.2,1.5,0.4,2.1,0.6L278.8,35.6z M322.3,26.1
	c-2.2,7.3-4.4,14.1-6.8,20.5s-4.9,12.6-7.7,18.6c-1,2.2-2,4-3,5.5s-2.1,2.8-3.3,3.7c-1.2,1-2.6,1.7-4.1,2.2s-3.3,0.7-5.3,0.7
	c-1.7,0-3.2-0.2-4.7-0.5c-1.4-0.3-2.6-0.7-3.5-1l1.9-8.6c1.1,0.4,2.1,0.6,3,0.8c0.9,0.1,1.8,0.2,2.7,0.2c1.9,0,3.4-0.5,4.4-1.5
	s1.9-2.5,2.6-4.3c-2.5-4.8-4.9-10.2-7.3-16.2s-4.8-12.7-6.9-20.1h11.4c0.5,1.9,1,3.9,1.7,6.1s1.3,4.4,2.1,6.6
	c0.7,2.2,1.5,4.4,2.2,6.5s1.5,4,2.1,5.8c0.6-1.7,1.3-3.6,2-5.8c0.7-2.1,1.3-4.3,2-6.5s1.3-4.4,1.9-6.6c0.6-2.2,1.1-4.2,1.6-6.1
	L322.3,26.1L322.3,26.1z"/>
<rect x="192.2" y="54" class="st2" width="162.6" height="34"/>
<path class="st0" d="M214.9,71.5c2.7-0.7,5.1-1.4,6.9-2.1c0.8-0.3,1.3-0.7,1.6-0.7c2.4,0,4.9,1,4.9,2.3c0,0.9-0.3,1.9-2.1,2.1
	c-4,0.3-7,0.8-10.5,1.7c0.6,2.4,1,4,1.3,5.2c0.6,2.4,1.1,3.5,1.1,5.1c0,1.2-0.7,2.1-2.4,2.1c-1.6,0-2.7-2-3.1-3.8
	c-0.2-0.8-0.1-2.5-0.5-4.5c-0.2-1-0.4-1.9-0.6-3c-2.3,0.7-4.8,1.7-6.3,2.5c-1.1,0.6-1.7,1.2-2.7,1.3c-1.7,0-4.1-1.7-4.5-2.5
	c-0.4-0.6-0.6-1.5-0.6-2.7l0.3-0.2c1.2,0.8,1.7,1,2.4,1c1,0,6.3-1.5,10.5-2.7c-0.4-1.8-0.8-3.5-1.1-4.8c-1.2,0.4-2.3,0.8-3.2,1.2
	c-1.1,0.5-2,1.1-3,1.1c-1.2,0-3.1-1.5-3.9-2.8c-0.4-0.6-0.4-1-0.6-1.9l0.3-0.2c0.9,0.5,1.3,0.7,2.3,0.7c0.9,0,4.2-0.9,7.2-1.6
	c-0.5-1.7-0.9-3.1-1.2-3.9c-0.4-1.2-0.5-1.4-3.2-2.5v-0.4c1.3-0.8,2.8-1.5,3.8-1.5c1.4,0,4.7,1.2,4.9,2.3c0.2,1-0.3,1.6-0.3,2.6
	c0.1,0.6,0.2,1.4,0.3,2.3c1-0.3,1.7-0.5,2.3-0.7c1.6-0.6,2.7-1.4,3-1.4c1.4,0,4.4,0.9,4.4,2.1c0,1-0.3,1.9-2,2.2
	c-2.1,0.4-4.8,0.9-6.9,1.4L214.9,71.5z M220.4,57.8c2.1,0.4,4,1,5.2,2.1c0.7,0.6,0.9,1.3,0.9,1.9c0,0.8-0.6,1.5-1.5,1.5
	c-0.6,0-1.1-0.4-1.6-1.2c-0.6-1-1.5-2.4-3.2-4L220.4,57.8z M223.8,55.3c2.2,0.3,3.9,0.8,5,1.6c0.9,0.6,1.2,1.4,1.2,2.2
	c0,0.9-0.5,1.4-1.4,1.4c-0.8,0-1.2-0.4-1.8-1.3c-0.6-0.8-1.3-1.9-3.3-3.5L223.8,55.3z M235.3,64.8c0.9-0.5,1.7-1,3.2-1
	c1.3,0,4.5,0.6,4.5,1.8c0,0.8-0.3,1.8-0.2,2.6c0,0.4,0.1,1,0.2,1.7c2.4-0.6,5.3-1.4,6-1.7c0.7-0.3,1.5-0.9,2-0.9
	c1.5,0,4.6,2.5,4.6,4.2c0,0.9-1.6,0.9-2.1,1.4c-1.5,1.2-3.9,3.2-6.8,4.6l-0.3-0.2c1.3-2.1,2.4-4.8,2.8-6c0.1-0.3,0-0.4-0.4-0.4
	c-1,0.2-3.1,0.9-5.4,1.6c0.9,3.7,1.9,7.5,2.5,9.5c0.2,0.8,0.8,2.3,0.8,3.3c0,1.4-0.6,2-1.9,2c-1.9,0-3.2-1.6-3.3-3.5
	c-0.1-2.1-0.6-6.2-1.6-10.1c-0.9,0.3-1.8,0.7-2.4,1c-1.5,0.7-2.1,1.5-3,1.5c-1.4,0-3-1.6-3.3-2.6c-0.2-0.6-0.2-1.6,0-2.4h0.2
	c0.8,0.5,1.2,0.9,2.3,0.9c1,0,3.3-0.5,5.5-1.1c-0.5-1.7-0.9-3.2-1.3-4c-0.4-0.6-1.4-1.3-2.5-1.8v-0.4H235.3z M259.6,65.5l0.4-0.2
	c1.2,1.1,1.9,1.7,3.5,1.7c2.2,0,10.6-1,13.5-1.6c1.5-0.3,2.1-1.1,3-1.1c1.7,0,5.3,2.8,5.3,4.5c0,1.1-1.8,1.7-2.8,3.5
	c-3.2,5.9-9.5,12.2-20.8,15.1l-0.4-0.6c9.3-4.9,14.7-12.3,16.3-17.6c0.1-0.5,0-0.6-0.4-0.6c-1.4,0-8.5,1.5-10.7,2.3
	c-1,0.4-1.8,1-2.6,1c-1.8,0-3.8-2.6-4.1-3.8C259.5,67.1,259.5,66.5,259.6,65.5z M279.2,60.7c-3,0.8-8.6,1.7-11.6,1.7
	c-2.5,0-3.8-1.5-5.1-4.5l0.3-0.3c1.5,0.9,3,0.9,4.2,0.9c2.9,0,5.2-0.8,6.6-1.2c1.7-0.5,2.2-0.9,2.6-0.9c2.9,0,4.6,0.9,4.6,2.6
	C280.7,59.9,280.4,60.5,279.2,60.7z M290.6,59.5V59c1-0.5,2.2-1,3.3-1c1.7,0,5.6,2.1,5.6,3.6c0,1.1-0.9,1.7-1,3.2
	c-0.1,1.6-0.1,7.1-0.1,10c0,2.2-0.9,3.1-2.4,3.1c-1.4,0-2.8-2.1-2.8-4.6c0-0.9,0.6-1.7,0.6-4c0-1.8,0-5.8-0.2-7.3
	c-0.1-0.6-0.3-1-0.8-1.3S291.4,59.8,290.6,59.5z M295.1,87.7l-0.3-0.6c6.7-3.7,10.4-8.4,11.1-15.4c0.3-2.4,0.2-8.2,0.1-10
	c-0.1-1-0.1-1.3-0.8-1.7c-0.6-0.4-1.4-0.7-2.2-1v-0.5c1.1-0.9,2.8-2,3.9-2c1.6,0,5.2,2,5.2,3.3c0,1-0.8,1.5-0.9,2.6
	c-0.1,2.1-0.4,7.2-0.5,9.3C310.1,80.4,304.4,85.4,295.1,87.7z M320,67.7c1.2,1.5,1.9,2.4,4,2.4c4.2,0,14.1-0.7,16.6-0.9
	c2.4-0.2,4.4-0.6,5.2-0.6c2.6,0,4.6,1.4,4.6,3.2c0,1.3-1.2,1.8-2.8,1.8c-1.5,0-2.8-0.1-5.5-0.1c-3,0-9.9,0.5-12.7,0.8
	c-2.9,0.3-3.5,1.3-5,1.3c-1.7,0-4.1-2.6-4.9-4.6c-0.3-0.9-0.2-2.2,0-3.1L320,67.7z"/>
</svg>
