<?xml version="1.0" encoding="utf-8"?>
<!-- Generator: Adobe Illustrator 24.0.1, SVG Export Plug-In . SVG Version: 6.00 Build 0)  -->
<svg version="1.1" id="Layer_1" xmlns="http://www.w3.org/2000/svg" xmlns:xlink="http://www.w3.org/1999/xlink" x="0px" y="0px"
	 viewBox="0 0 1293 386.6" style="enable-background:new 0 0 1293 386.6;" xml:space="preserve">
<style type="text/css">
	.st0{fill:#F2F2F2;}
	.st1{fill:#DC2727;}
</style>
<g>
	<g>
		<path class="st0" d="M353.1,143.9c-3-8.3-7.6-15.2-13.8-20.6c-6.2-5.5-14.5-8.2-25-8.2c-8.6,0-16,1.9-22.2,5.6
			s-11.5,8.2-15.9,13.3V36.6h-37.4v283.5h37.4v-14.7c4.2,4.4,9.2,8.5,14.9,12.1c5.7,3.6,12.2,5.4,19.4,5.4
			c13.3,0,23.6-3.9,30.8-11.7c7.2-7.8,12.2-18.1,15-30.8c2.8-12.7,4.2-26.2,4.2-40.4v-49c0-6.1-0.5-13.4-1.4-21.9
			S356.2,152.2,353.1,143.9z M323,240c0,9.8-0.3,18.8-1,26.9c-0.7,8.2-2.4,14.6-5.2,19.4c-2.8,4.8-7.5,7.2-14,7.2
			c-5.4,0-10.3-0.9-14.9-2.6c-4.5-1.8-8.5-3.9-11.7-6.5V154.6c3.3-2.6,7.1-4.9,11.4-7s8.9-3.1,13.8-3.1c6.5,0,11.3,2.1,14.3,6.3
			s5,9.9,5.9,17s1.4,14.9,1.4,23.3L323,240L323,240z"/>
		<path class="st0" d="M508,289.7c-0.3-5.8-0.5-11.9-0.5-18.2v-92.4c0-20.8-4.2-36.6-12.6-47.6s-22.6-16.4-42.7-16.4
			c-20.5,0-35.7,5.3-45.5,15.9s-14.9,27.1-15.4,49.5l37.1,1.4v-10.1c0-5.8,0.7-10.9,2.1-15.2s3.7-7.6,6.8-10
			c3.1-2.3,7.3-3.5,12.4-3.5c5.8,0,10.2,1.3,13.1,4s4.8,6.7,5.8,12.1c0.9,5.4,1.4,12.1,1.4,20.3v14.3c-10.7,4.2-20.9,8.5-30.6,12.9
			s-18.2,9.6-25.5,15.6s-13.1,13.2-17.3,21.9c-4.2,8.6-6.3,19.2-6.3,31.8c0,7.9,1.7,15.5,5.2,22.6s8.3,12.9,14.3,17.5
			c6.1,4.5,13.1,6.8,21,6.8c11.7,0,20.8-3.4,27.5-10.3c6.6-6.9,11.1-14.3,13.5-22.2c0.5,4.7,1.2,9.9,2.3,15.6
			c1.1,5.7,1.9,10.4,2.6,14.2H511c-0.5-4.4-1-9.2-1.6-14.2C508.8,300.9,508.4,295.5,508,289.7z M470,273.9c-0.9,1.6-2.7,3.8-5.3,6.5
			c-2.6,2.7-5.5,5.1-8.7,7.2c-3.3,2.1-6.8,3.2-10.5,3.2c-5.8,0-10.3-2.3-13.3-7s-4.5-11.1-4.5-19.2c0-5.8,1.1-11,3.3-15.6
			c2.2-4.6,5.2-8.6,9.1-12.3c3.8-3.6,8.3-7.1,13.5-10.3c5.1-3.3,10.6-6.5,16.4-9.8V273.9z"/>
		<path class="st0" d="M183.4,119.1c-5.4-3.1-11.3-4.7-17.8-4.7c-9.3,0-18.3,2-26.8,6.1s-16.4,10.6-23.6,19.4
			c-2.6-9.6-6.8-16.2-12.8-19.9c-5.9-3.7-12.7-5.6-20.1-5.6c-8.6,0-17,1.9-25.2,5.6s-15.6,9.4-22.4,17.1v-19.2H0v202.3h34.6V155.3
			c4.9-5.1,10.1-9.2,15.6-12.1c5.5-2.9,10.8-4.4,15.9-4.4c5.4,0,9.6,1.7,12.8,5.1c3.1,3.4,4.7,10,4.7,19.8v156.4h34.3V161.2
			c0-1.2,0-2.2,0-3.1c0-0.9,0-1.9,0-2.8c4.7-5.1,9.8-9.2,15.4-12.1c5.6-2.9,11-4.4,16.1-4.4c5.4,0,9.6,1.7,12.8,5.1
			c3.2,3.4,4.7,10,4.7,19.8v156.4h34.3V161.2c0-11.2-1.6-20.2-4.9-27.1C193.1,127.2,188.8,122.2,183.4,119.1z"/>
		<polygon class="st0" points="776,36.6 775,36.6 774.6,39 		"/>
		<rect x="1056.4" y="117.8" class="st0" width="57" height="202.3"/>
		<path class="st0" d="M1290.6,150.7c-1.6-7.2-4.2-13.6-7.7-19.1s-8-9.7-13.5-12.8c-5.5-3-12.1-4.5-19.8-4.5c-7,0-14.3,1.5-22,4.5
			s-14.9,7.6-21.7,13.6v-14.7h-57v268.8h57v-81.9c6.8,5.8,13.8,10.4,21.2,13.8s14.6,5.1,21.9,5.1c9.6,0,17.6-2.6,24.1-7.9
			s11.5-12.5,14.9-21.9c3.4-9.3,5.1-20.3,5.1-32.9v-87.1C1293,165.7,1292.2,158,1290.6,150.7z M1236,264.1c0,4.2-0.5,8-1.6,11.4
			s-2.6,6.1-4.7,8.2s-5,3.2-8.7,3.2c-2.6,0-5.1-0.5-7.5-1.4s-5-2.2-7.5-3.8v-126c2.3-2.1,4.8-3.8,7.5-5.1s5.5-1.9,8.6-1.9
			c3.3,0,5.9,0.9,8,2.8c2.1,1.9,3.6,4.4,4.6,7.5c0.9,3.2,1.4,6.7,1.4,10.7v94.4L1236,264.1L1236,264.1z"/>
		<path class="st0" d="M1056.1,67.5v25.8h43.6c5.4-5.4,8.4-8.4,13.8-13.8V53.7h-43.6C1064.5,59.1,1061.4,62.1,1056.1,67.5z"/>
		<path class="st0" d="M622.3,150.4c2.1,4,3.2,9.6,3.2,16.8v117.2l37.4-61.6v-66.5c0-6.5-0.9-12.9-2.6-19.2
			c-1.7-6.3-4.8-11.5-9.1-15.7s-10.4-6.3-18.4-6.3c-10.3,0-19.6,2.3-28,7s-16,10.3-22.7,16.8V36.6h-37.4v283.5H582V157.7
			c4.2-3.7,8.7-6.9,13.5-9.4c4.8-2.6,9.4-3.8,13.8-3.8C615.9,144.4,620.2,146.4,622.3,150.4z"/>
		<polygon class="st0" points="812.2,120.8 826.1,222.8 796,222.8 809.3,125.2 738,232.9 721.5,320.1 780.6,320.1 790.4,260.3 
			832.1,260.3 841.5,320.1 899.3,320.1 851.2,62.1 		"/>
		<path class="st0" d="M1023.2,115.4c-9.3,0-17.3,3.1-23.8,9.3s-13.1,15.1-19.6,26.8v-33.6h-57v202.3h57V188.5
			c4.7-6.1,9.8-10.8,15.4-14.3c5.6-3.5,11.7-5.2,18.2-5.2c3.5,0,6.8,0.4,10,1.2c3.1,0.8,6,1.8,8.6,3v-56.7c-1.2-0.5-2.4-0.8-3.8-0.9
			C1026.7,115.4,1025,115.4,1023.2,115.4z"/>
	</g>
	<g>
		<g>
			<polygon class="st1" points="801,0 616.2,320.1 588.8,320.1 752.5,36.6 			"/>
		</g>
	</g>
	<g>
		<g>
			<polygon class="st1" points="639.1,382 823.9,61.9 851.3,61.9 687.6,345.4 			"/>
		</g>
	</g>
</g>
</svg>
