<?xml version="1.0" encoding="utf-8"?>
<!-- Generator: Adobe Illustrator 24.0.1, SVG Export Plug-In . SVG Version: 6.00 Build 0)  -->
<svg version="1.1" id="Layer_1" xmlns="http://www.w3.org/2000/svg" xmlns:xlink="http://www.w3.org/1999/xlink" x="0px" y="0px"
	 viewBox="0 0 369 88" style="enable-background:new 0 0 369 88;" xml:space="preserve">
<style type="text/css">
	.st0{fill:#171717;}
	.st1{fill:#F2F2F3;}
</style>
<g>
	<rect class="st0" width="73" height="73"/>
</g>
<g>
	<rect x="73" class="st0" width="296" height="73"/>
</g>
<g>
	<polygon class="st1" points="73,34.9 41.4,3.3 44.7,0 41.9,0 38.6,3.3 73,37.7 	"/>
	<polygon class="st1" points="73,44.9 31.4,3.3 34.7,0 31.9,0 28.6,3.3 73,47.7 	"/>
	<polygon class="st1" points="73,54.9 21.4,3.3 24.7,0 21.9,0 18.6,3.3 73,57.7 	"/>
	<polygon class="st1" points="73,4.9 71.4,3.3 73,1.7 73,0 71.9,0 68.6,3.3 73,7.7 	"/>
	<polygon class="st1" points="73,64.8 11.4,3.3 14.6,0 11.8,0 8.6,3.3 73,67.6 	"/>
	<polygon class="st1" points="73,14.9 61.4,3.3 64.7,0 61.9,0 58.6,3.3 73,17.7 	"/>
	<polygon class="st1" points="73,24.9 51.4,3.3 54.7,0 51.9,0 48.6,3.3 73,27.7 	"/>
	<polygon class="st1" points="0,34.7 38.3,73 41.1,73 0,31.8 	"/>
	<polygon class="st1" points="0,64.6 8.3,73 11.1,73 0,61.8 	"/>
	<polygon class="st1" points="0,24.7 48.3,73 51.1,73 0,21.8 	"/>
	<polygon class="st1" points="4.7,0 1.8,0 0,1.8 0,4.6 68.3,73 71.1,73 1.4,3.3 	"/>
	<polygon class="st1" points="0,14.7 58.3,73 61.1,73 0,11.8 	"/>
	<polygon class="st1" points="0,44.7 28.3,73 31.1,73 0,41.8 	"/>
	<polygon class="st1" points="0,54.6 18.3,73 21.2,73 0,51.8 	"/>
</g>
<g>
	<path class="st1" d="M93.4,55.3c1.6,0,2.9-0.1,4-0.4c1-0.3,1.9-0.6,2.5-1.1s1.1-1,1.3-1.6c0.2-0.6,0.4-1.3,0.4-2.1
		c0-1.7-0.8-3-2.3-4.1c-1.6-1.1-4.2-2.3-8-3.5c-1.7-0.6-3.3-1.3-5-2c-1.7-0.8-3.1-1.7-4.5-2.9c-1.3-1.1-2.4-2.5-3.2-4.2
		c-0.8-1.6-1.2-3.6-1.2-6c0-2.3,0.4-4.4,1.3-6.3s2.1-3.5,3.7-4.8s3.6-2.3,5.8-3c2.3-0.7,4.9-1.1,7.7-1.1c3.4,0,6.4,0.4,8.8,1.1
		c2.5,0.7,4.5,1.5,6.1,2.4l-3.3,9c-1.4-0.7-3-1.4-4.7-1.9c-1.7-0.6-3.8-0.8-6.2-0.8c-2.7,0-4.7,0.4-5.9,1.1
		c-1.2,0.8-1.8,1.9-1.8,3.5c0,0.9,0.2,1.7,0.7,2.3c0.4,0.6,1.1,1.2,1.9,1.7s1.7,1,2.8,1.4c1,0.4,2.2,0.8,3.5,1.3
		c2.6,1,4.9,1.9,6.9,2.9c1.9,1,3.6,2.1,4.9,3.3c1.3,1.3,2.3,2.8,2.9,4.5s0.9,3.8,0.9,6.2c0,4.7-1.7,8.4-5,11s-8.3,3.9-15,3.9
		c-2.2,0-4.3-0.1-6.1-0.4c-1.8-0.3-3.4-0.6-4.8-1S80,62.8,79,62.4c-1-0.4-1.8-0.9-2.5-1.2l3.2-9.1c1.5,0.8,3.4,1.6,5.6,2.2
		C87.5,55,90.2,55.3,93.4,55.3z"/>
	<path class="st1" d="M119.6,45.1c0-3.4,0.5-6.4,1.6-9c1-2.6,2.4-4.7,4.1-6.4c1.7-1.7,3.7-3,5.9-3.9s4.5-1.3,6.8-1.3
		c5.5,0,9.8,1.7,12.9,5c3.2,3.3,4.7,8.2,4.7,14.7c0,0.6,0,1.3-0.1,2.1s-0.1,1.4-0.1,2h-24.7c0.2,2.2,1.3,4,3.1,5.3s4.3,2,7.5,2
		c2,0,4-0.2,5.9-0.5c1.9-0.4,3.5-0.8,4.7-1.4l1.5,8.8c-0.6,0.3-1.4,0.6-2.3,0.9s-2.1,0.5-3.3,0.8c-1.2,0.2-2.5,0.4-3.8,0.5
		c-1.4,0.1-2.7,0.2-4.1,0.2c-3.5,0-6.5-0.5-9-1.5c-2.6-1-4.7-2.4-6.4-4.2c-1.7-1.8-2.9-3.9-3.7-6.3C120,50.5,119.6,47.9,119.6,45.1z
		 M145.2,40.9c-0.1-0.9-0.2-1.8-0.5-2.7s-0.7-1.7-1.2-2.3c-0.6-0.7-1.3-1.2-2.1-1.7c-0.9-0.4-1.9-0.7-3.2-0.7
		c-1.2,0-2.3,0.2-3.1,0.6c-0.9,0.4-1.6,1-2.2,1.6c-0.6,0.7-1,1.5-1.3,2.4s-0.6,1.8-0.7,2.7h14.3V40.9z"/>
	<path class="st1" d="M187.3,35.2c-1-0.2-2.1-0.5-3.4-0.8c-1.3-0.3-2.7-0.4-4.2-0.4c-0.7,0-1.5,0.1-2.4,0.2
		c-0.9,0.1-1.7,0.3-2.2,0.4V64h-10.9V27.6c1.9-0.7,4.3-1.3,6.9-1.9c2.7-0.6,5.6-0.9,8.9-0.9c0.6,0,1.3,0,2.1,0.1s1.7,0.2,2.5,0.3
		c0.8,0.1,1.7,0.3,2.5,0.4c0.8,0.2,1.5,0.4,2.1,0.6L187.3,35.2z"/>
	<path class="st1" d="M207.7,64c-2.5-4.9-5-10.6-7.6-17.1s-5-13.6-7.3-21.3h11.5c0.5,1.9,1.1,4,1.7,6.2c0.7,2.2,1.3,4.5,2.1,6.7
		s1.4,4.5,2.1,6.6c0.7,2.1,1.4,4.1,2.1,5.8c0.6-1.8,1.3-3.7,2.1-5.8c0.7-2.1,1.5-4.3,2.2-6.6s1.4-4.5,2.1-6.7
		c0.7-2.2,1.2-4.3,1.7-6.2h11.3c-2.3,7.7-4.7,14.8-7.3,21.3s-5.1,12.2-7.6,17.1H207.7z"/>
	<path class="st1" d="M249.3,14.4c0,2-0.6,3.6-1.9,4.7c-1.3,1.1-2.8,1.7-4.6,1.7s-3.3-0.6-4.6-1.7s-1.9-2.7-1.9-4.7s0.6-3.6,1.9-4.7
		c1.3-1.1,2.8-1.7,4.6-1.7s3.3,0.6,4.6,1.7C248.7,10.9,249.3,12.4,249.3,14.4z M248.3,64h-10.9V25.5h10.9V64z"/>
	<path class="st1" d="M256.7,44.8c0-2.8,0.4-5.4,1.4-7.9c0.9-2.5,2.2-4.6,3.9-6.4c1.7-1.8,3.8-3.3,6.2-4.3c2.4-1.1,5.2-1.6,8.3-1.6
		c2,0,3.9,0.2,5.6,0.5c1.7,0.4,3.4,0.9,5,1.6l-2.3,8.7c-1-0.4-2.1-0.7-3.4-1c-1.2-0.3-2.6-0.4-4.1-0.4c-3.2,0-5.6,1-7.2,3
		s-2.4,4.6-2.4,7.9c0,3.5,0.7,6.1,2.2,8s4.1,2.8,7.8,2.8c1.3,0,2.7-0.1,4.2-0.4c1.5-0.2,2.9-0.6,4.2-1.2l1.5,8.9
		c-1.3,0.5-2.9,1-4.8,1.4s-4,0.6-6.3,0.6c-3.5,0-6.5-0.5-9.1-1.6c-2.5-1-4.6-2.5-6.2-4.3s-2.8-3.9-3.6-6.4
		C257.1,50.3,256.7,47.6,256.7,44.8z"/>
	<path class="st1" d="M291.4,45.1c0-3.4,0.5-6.4,1.6-9s2.4-4.7,4.1-6.4c1.7-1.7,3.7-3,5.9-3.9s4.5-1.3,6.8-1.3c5.5,0,9.8,1.7,12.9,5
		c3.2,3.3,4.7,8.2,4.7,14.7c0,0.6,0,1.3-0.1,2.1s-0.1,1.4-0.1,2h-24.7c0.2,2.2,1.3,4,3.1,5.3c1.8,1.3,4.3,2,7.5,2c2,0,4-0.2,5.9-0.5
		c1.9-0.4,3.5-0.8,4.7-1.4l1.5,8.8c-0.6,0.3-1.4,0.6-2.3,0.9c-1,0.3-2.1,0.5-3.3,0.8c-1.2,0.2-2.5,0.4-3.8,0.5
		c-1.4,0.1-2.7,0.2-4.1,0.2c-3.5,0-6.5-0.5-9-1.5c-2.6-1-4.7-2.4-6.4-4.2s-2.9-3.9-3.7-6.3C291.8,50.5,291.4,47.9,291.4,45.1z
		 M317,40.9c-0.1-0.9-0.2-1.8-0.5-2.7s-0.7-1.7-1.2-2.3c-0.6-0.7-1.3-1.2-2.1-1.7c-0.9-0.4-1.9-0.7-3.2-0.7c-1.2,0-2.3,0.2-3.1,0.6
		c-0.9,0.4-1.6,1-2.2,1.6c-0.6,0.7-1,1.5-1.4,2.4c-0.3,0.9-0.6,1.8-0.7,2.7H317V40.9z"/>
	<path class="st1" d="M346.9,56.2c2,0,3.4-0.2,4.2-0.6c0.8-0.4,1.2-1.1,1.2-2.3c0-0.9-0.5-1.6-1.6-2.3s-2.7-1.4-4.9-2.2
		c-1.7-0.6-3.3-1.3-4.6-2c-1.4-0.7-2.6-1.5-3.5-2.5c-1-0.9-1.7-2.1-2.3-3.4c-0.5-1.3-0.8-2.9-0.8-4.8c0-3.6,1.3-6.5,4-8.5
		c2.7-2.1,6.4-3.1,11-3.1c2.3,0,4.6,0.2,6.7,0.6s3.8,0.9,5.1,1.4l-1.9,8.5c-1.3-0.4-2.6-0.8-4.1-1.2c-1.5-0.3-3.2-0.5-5-0.5
		c-3.4,0-5.1,1-5.1,2.9c0,0.4,0.1,0.8,0.2,1.2c0.1,0.3,0.4,0.7,0.9,1c0.4,0.3,1,0.7,1.8,1s1.7,0.8,2.9,1.2c2.4,0.9,4.4,1.8,5.9,2.6
		c1.6,0.9,2.8,1.8,3.7,2.8c0.9,1,1.5,2.1,1.9,3.3s0.6,2.6,0.6,4.2c0,3.8-1.4,6.7-4.3,8.6C356.1,64,352,65,346.8,65
		c-3.4,0-6.3-0.3-8.5-0.9c-2.3-0.6-3.8-1.1-4.7-1.5l1.8-8.8c1.8,0.7,3.7,1.3,5.7,1.7C343.1,56,345,56.2,346.9,56.2z"/>
</g>
<rect x="192.2" y="54" class="st1" width="146.8" height="34"/>
<g>
	<path class="st0" d="M214.5,56.6c1.2-0.8,2.4-1.4,3.5-1.4c2.1,0,5.2,1.8,5.2,3.3c0,0.9-0.9,0.8-1,3.1c0,1,0,1.9,0,2.7
		c2.5-0.3,2.9-0.7,3.6-0.7c2.5,0,5.2,1.1,5.2,3.2c0,1.5-0.8,1.7-2,1.7c-1.4,0-3.4-0.6-6.8-0.7c-0.2,5.3-0.7,9.2-2.4,11.8
		c-2.8,4.1-7.1,6.3-12.2,7.4l-0.2-0.5c3.1-1.7,6.3-4,8.4-7.7c1.3-2.3,1.9-6.6,1.9-10.9c-2.1,0.2-4.4,0.4-6.1,0.7
		c0,3,0.1,5.4,0.1,7.5c0,1.5-0.7,2.2-2.1,2.2c-1.6,0-2.8-2.4-2.8-4.2c0-0.8,0.6-1.9,0.7-4.8c-1.3,0.3-2.4,0.5-3.2,0.8
		c-0.9,0.4-1.8,1-2.6,1c-1.7,0-3.1-2.3-3.4-3.1c-0.3-0.6-0.4-1.7-0.3-2.9l0.4-0.1c1.2,1.2,1.8,1.5,2.9,1.5c1.1,0,4-0.3,6.2-0.5
		c0-2.1-0.1-3.8-0.2-4.6c-0.2-1.1-0.9-1.5-2.7-2.1v-0.4c1-0.7,2.3-1.2,3.3-1.2c1.6,0,4.8,1.4,4.8,3.1c0,0.9-0.7,1-0.8,2.3
		c-0.1,0.6-0.1,1.5-0.1,2.4l6.1-0.7c0-2.4-0.1-4.2-0.3-5.9c-0.1-1.1-0.8-1.4-2.7-1.9L214.5,56.6z"/>
	<path class="st0" d="M234.5,67.1c1.2,1.5,1.9,2.4,4,2.4c4.2,0,14.3-0.7,16.7-0.9c2.4-0.2,4.4-0.6,5.3-0.6c2.6,0,4.6,1.4,4.6,3.3
		c0,1.3-1.2,1.8-2.8,1.8c-1.5,0-2.8-0.1-5.6-0.1c-3,0-10,0.5-12.9,0.8s-3.5,1.3-5,1.3c-1.7,0-4.2-2.6-4.9-4.7
		c-0.3-0.9-0.2-2.2,0-3.2L234.5,67.1z"/>
	<path class="st0" d="M288.5,61.3c1.6,0.3,2.6,0.6,3.8,1.5c1.9,1.3,2.7,3.1,2.7,4c0,1-1.1,1.1-2.5,1.7c-3.6,1.6-8.4,3.2-14.3,4.9
		c0,1.6-0.1,3.1,0,4.2c0.1,2.7,0.4,3.2,4.1,3.2c5,0,9-1.4,9.4-1.4c3.2,0,4.9,0.8,4.9,2.5c0,1.6-0.9,2.2-2.1,2.6
		c-2.1,0.8-6.5,1.1-10.9,1.1c-8.7,0-9.5-1.6-9.7-7.3c-0.1-6.2,0.3-16.7-0.2-17.7c-0.3-0.7-1.5-1.2-2.9-1.7v-0.3
		c0.9-0.5,2.6-1.4,3.8-1.4c2.5,0,5.4,2.4,5.4,3.9c0,1.1-0.9,1.5-1.1,2.6c-0.3,1.7-0.6,4.8-0.7,7.8c4-2,7.8-4.3,9.9-6.4
		c0.5-0.5,0.7-0.9,0.6-1.7c-0.1-0.7-0.4-1.4-0.5-1.7L288.5,61.3z M291.5,57.5c2.1,0.4,4,1,5.2,2.1c0.7,0.7,0.9,1.3,0.9,2
		c0,0.8-0.7,1.5-1.6,1.5c-0.6,0-1.1-0.4-1.6-1.2c-0.7-1-1.5-2.4-3.3-4L291.5,57.5z M294.9,55c2.2,0.3,4,0.8,5,1.6
		c0.9,0.7,1.2,1.4,1.2,2.3c0,0.9-0.5,1.5-1.4,1.5c-0.8,0-1.2-0.4-1.9-1.3c-0.6-0.8-1.3-1.9-3.3-3.6L294.9,55z"/>
	<path class="st0" d="M308.5,59.3c0.9,1.1,2.1,2,3.3,2c2.8,0,8.8-1.2,10.4-1.5c1-0.2,1.7-1.5,2.6-1.5c1.8,0,5.6,3.3,5.6,4.6
		c0,1.2-2,1.9-2.4,2.4c-1.3,1.7-3,4.7-5.1,7.1c5.9,1.5,11,4.7,11,9.2c0,1.3-1.1,2.9-2.8,2.9c-1.7,0-2.8-1.1-3.7-2.8
		c-1.3-2.8-2.4-5.6-5.7-8c-3.3,3.3-9.2,8.8-19,11.4l-0.4-0.7c8.6-4.4,17.7-14.1,20.4-21c0.2-0.6,0-0.8-0.4-0.8c-0.9,0-5.3,1.5-7,2.1
		c-1.2,0.5-1.8,1.5-2.9,1.5c-1.9,0-3.7-2.4-4.2-4c-0.3-0.9-0.3-1.9-0.1-2.9L308.5,59.3z"/>
</g>
</svg>
