<?xml version="1.0" encoding="utf-8"?>
<!-- Generator: Adobe Illustrator 24.0.1, SVG Export Plug-In . SVG Version: 6.00 Build 0)  -->
<svg version="1.1" id="Layer_1" xmlns="http://www.w3.org/2000/svg" xmlns:xlink="http://www.w3.org/1999/xlink" x="0px" y="0px"
	 viewBox="0 0 340.7 86" style="enable-background:new 0 0 340.7 86;" xml:space="preserve">
<style type="text/css">
	.st0{fill:#0d0d0d;}
	.st1{fill:#f2f2f2;}
</style>
<rect class="st0" width="73" height="73"/>
<rect x="73" class="st0" width="243" height="73"/>
<g>
	<polygon class="st1" points="73,44.9 31.4,3.3 34.7,0 31.9,0 28.6,3.3 73,47.7 	"/>
	<polygon class="st1" points="73,34.9 41.4,3.3 44.7,0 41.9,0 38.6,3.3 73,37.7 	"/>
	<polygon class="st1" points="73,64.8 11.4,3.3 14.6,0 11.8,0 8.6,3.3 73,67.6 	"/>
	<polygon class="st1" points="73,54.9 21.4,3.3 24.7,0 21.9,0 18.6,3.3 73,57.7 	"/>
	<polygon class="st1" points="73,4.9 71.4,3.3 73,1.7 73,0 71.9,0 68.6,3.3 73,7.7 	"/>
	<polygon class="st1" points="73,14.9 61.4,3.3 64.7,0 61.9,0 58.6,3.3 73,17.7 	"/>
	<polygon class="st1" points="73,24.9 51.4,3.3 54.7,0 51.9,0 48.6,3.3 73,27.7 	"/>
	<polygon class="st1" points="4.7,0 1.8,0 0,1.8 0,4.6 68.3,73 71.1,73 1.4,3.3 	"/>
	<polygon class="st1" points="0,24.7 48.3,73 51.1,73 0,21.8 	"/>
	<polygon class="st1" points="0,64.6 8.3,73 11.1,73 0,61.8 	"/>
	<polygon class="st1" points="0,34.7 38.3,73 41.1,73 0,31.8 	"/>
	<polygon class="st1" points="0,14.7 58.3,73 61.1,73 0,11.8 	"/>
	<polygon class="st1" points="0,44.7 28.3,73 31.1,73 0,41.8 	"/>
	<polygon class="st1" points="0,54.6 18.3,73 21.2,73 0,51.8 	"/>
</g>
<path class="st1" d="M93.7,11.5c7.4,0,13.2,1.3,17.1,3.9c4,2.6,6,6.9,6,12.9s-2,10.3-6,13s-9.8,4-17.3,4H90V62H78.8V12.8
	c2.4-0.5,5-0.8,7.8-1C89.3,11.6,91.7,11.5,93.7,11.5z M94.5,21.1c-0.8,0-1.6,0-2.4,0.1c-0.8,0-1.5,0.1-2.1,0.1v14.4h3.5
	c3.9,0,6.8-0.5,8.8-1.6s3-3,3-5.9c0-1.4-0.3-2.5-0.8-3.5c-0.5-0.9-1.2-1.6-2.2-2.2c-0.9-0.6-2.1-0.9-3.4-1.2
	C97.6,21.2,96.1,21.1,94.5,21.1z M147.2,33.6c-1-0.2-2.1-0.5-3.4-0.8c-1.3-0.3-2.7-0.4-4.2-0.4c-0.7,0-1.5,0.1-2.4,0.2
	c-0.9,0.1-1.6,0.3-2.1,0.4v29h-10.7V26.1c1.9-0.7,4.2-1.3,6.8-1.9s5.5-0.9,8.7-0.9c0.6,0,1.3,0,2.1,0.1s1.6,0.2,2.4,0.3
	c0.8,0.1,1.6,0.3,2.4,0.4c0.8,0.2,1.5,0.4,2.1,0.6L147.2,33.6z M189.5,43c0,3-0.4,5.7-1.3,8.2c-0.9,2.5-2.1,4.6-3.7,6.3
	c-1.6,1.8-3.6,3.1-5.9,4.1c-2.3,1-4.8,1.4-7.7,1.4c-2.8,0-5.3-0.5-7.6-1.4c-2.3-1-4.2-2.3-5.9-4.1c-1.6-1.8-2.9-3.9-3.8-6.3
	c-0.9-2.5-1.4-5.2-1.4-8.2s0.5-5.7,1.4-8.1c0.9-2.4,2.2-4.5,3.9-6.3c1.7-1.7,3.6-3.1,5.9-4c2.3-1,4.8-1.4,7.5-1.4s5.2,0.5,7.5,1.4
	c2.3,1,4.2,2.3,5.9,4c1.6,1.7,2.9,3.8,3.8,6.3C189,37.3,189.5,40,189.5,43z M178.6,43c0-3.3-0.7-5.9-2-7.8c-1.3-1.9-3.2-2.8-5.7-2.8
	c-2.4,0-4.3,0.9-5.7,2.8c-1.3,1.9-2,4.5-2,7.8s0.7,5.9,2,7.9c1.3,1.9,3.2,2.9,5.7,2.9c2.4,0,4.3-1,5.7-2.9
	C177.9,48.9,178.6,46.3,178.6,43z M214.2,6.1c2,0,3.7,0.2,5,0.5s2.4,0.7,3.3,1.1l-1.9,8.4c-0.8-0.3-1.6-0.6-2.6-0.7
	s-1.9-0.2-2.8-0.2c-1.3,0-2.4,0.2-3.3,0.5c-0.9,0.4-1.6,0.9-2.1,1.5s-0.9,1.4-1.1,2.2c-0.2,0.9-0.3,1.8-0.3,2.8v1.9h13.2V33h-13.2
	v29h-10.7V22.1c0-4.9,1.4-8.8,4.1-11.7C204.7,7.6,208.8,6.1,214.2,6.1z M239.7,13.2c0,2-0.6,3.5-1.9,4.6c-1.3,1.1-2.8,1.7-4.5,1.7
	s-3.2-0.6-4.5-1.7s-1.9-2.7-1.9-4.6c0-2,0.6-3.5,1.9-4.6c1.3-1.1,2.8-1.7,4.5-1.7s3.2,0.6,4.5,1.7C239,9.7,239.7,11.2,239.7,13.2z
	 M238.7,62H228V24.1h10.7V62z M263.9,62.7c-3.1,0-5.7-0.4-7.6-1s-3.5-1.5-4.6-2.6s-1.9-2.5-2.3-4.1c-0.4-1.6-0.6-3.4-0.6-5.4V7.9
	l10.7-1.7v41.3c0,1,0.1,1.8,0.2,2.6s0.4,1.4,0.8,1.9s1,1,1.8,1.3s1.8,0.6,3.1,0.6L263.9,62.7z M269.7,43.4c0-3.4,0.5-6.3,1.5-8.8
	s2.4-4.6,4.1-6.3c1.7-1.7,3.6-3,5.8-3.8c2.2-0.9,4.4-1.3,6.7-1.3c5.4,0,9.6,1.6,12.7,4.9s4.7,8.1,4.7,14.5c0,0.6,0,1.3-0.1,2.1
	c0,0.7-0.1,1.4-0.1,2h-24.3c0.2,2.2,1.3,4,3.1,5.3c1.8,1.3,4.3,1.9,7.3,1.9c2,0,3.9-0.2,5.8-0.5c1.9-0.4,3.4-0.8,4.6-1.3l1.4,8.7
	c-0.6,0.3-1.3,0.6-2.3,0.9c-1,0.3-2,0.5-3.2,0.8c-1.2,0.2-2.4,0.4-3.8,0.5c-1.3,0.1-2.7,0.2-4,0.2c-3.4,0-6.4-0.5-8.9-1.5
	s-4.6-2.4-6.3-4.1c-1.7-1.8-2.9-3.8-3.7-6.2C270.1,48.7,269.7,46.1,269.7,43.4z M294.9,39.2c0-0.9-0.2-1.8-0.5-2.7s-0.7-1.6-1.2-2.3
	c-0.6-0.7-1.2-1.2-2.1-1.7c-0.8-0.4-1.9-0.6-3.1-0.6s-2.2,0.2-3.1,0.6s-1.6,0.9-2.2,1.6c-0.6,0.7-1,1.5-1.3,2.3
	c-0.3,0.9-0.5,1.8-0.7,2.7h14.2V39.2z"/>
<rect x="142.3" y="51" class="st1" width="198.3" height="35"/>
<g>
	<path class="st0" d="M152.5,59.9c3.3,0,11.2-0.8,13.2-1.3c1.8-0.4,1.8-1,3-1c2,0,6.3,3.9,6.3,5.4c0,1.4-1.5,1.8-2.1,3
		c-4.6,8.7-11.3,15.5-23.5,19.1l-0.4-0.6c9.6-5.1,17-14.6,18.5-22.2c0-0.2-0.1-0.3-0.3-0.3c-2.9,0-9.6,1.8-11.7,2.4
		c-0.8,0.2-1.7,1-2.6,1c-1.9,0-4-2.7-4.3-4.3c-0.3-1.1-0.2-1.8-0.1-2.7L149,58C150.2,59.1,151.1,59.9,152.5,59.9z M171.9,56.2
		c0-2.3,1.8-4.1,4.1-4.1s4.1,1.8,4.1,4.1s-1.8,4.1-4.1,4.1S171.9,58.5,171.9,56.2z M173.5,56.2c0,1.4,1.1,2.4,2.4,2.4
		c1.4,0,2.4-1.1,2.4-2.4c0-1.4-1.1-2.4-2.4-2.4C174.6,53.7,173.5,54.8,173.5,56.2z M182.2,59.7c2.6-0.4,4.9-0.3,7.2,1.6
		c0.3,0.2,0.4,0.4,0.5,0.6c3.3-0.3,8.8-0.9,10.3-1.2c1.7-0.3,2.2-1.7,3.4-1.7c1.5,0,6,3.5,6,5.4c0,1.2-1.7,1.7-2,3.1
		c-0.5,2.2-1.2,4.6-1.9,7.2c1.2,0.3,2.4,1.2,2.4,2.3s-0.6,2-2,2s-3.3-0.4-5.5-0.4c-2.7,0-6.6,0.2-10.3,0.5v0.4
		c0,1.2-0.5,2.4-2.1,2.4c-1.5,0-2.7-1.9-2.7-3.6c0-1,0.2-2,0.2-3.1c0-1.7-0.6-9-1.2-11.8c-0.3-1.3-0.8-1.9-2.4-3.3L182.2,59.7z
		 M201,74.8c0.7-3.9,1.3-8.9,1.3-10.4c0-0.4-0.1-0.6-0.6-0.6c-1.6,0-4.6,0.3-6.6,0.6c-1.1,0.2-2.4,0.5-3.1,0.5c-0.6,0-1.3-0.3-2-0.7
		c0.1,3.1,0.1,9.3,0.1,11.7C193.3,75.5,197.7,75,201,74.8z M219.8,59.2c3.3,0,11.2-0.8,13.2-1.3c1.8-0.4,2.2-1.2,3.4-1.2
		c2,0,6.3,3.8,6.3,5.3c0,1.4-1.8,2.2-2.4,3.3c-4.6,8.7-11.3,15.5-23.5,19.1l-0.4-0.6c9.6-5.1,17-14.8,18.5-22.4
		c0-0.2-0.1-0.3-0.3-0.3c-2.9,0-9.6,1.7-11.7,2.4c-0.8,0.3-1.8,1.2-2.7,1.2c-1.9,0-4-2.7-4.3-4.3c-0.3-1.1-0.2-1.8-0.1-2.7l0.4-0.2
		C217.5,58.5,218.5,59.2,219.8,59.2z M246.5,63.4c1,0.9,1.4,1,2.3,1c3.2,0,10.5-0.9,12.8-1.2c1.3-0.2,1.9-0.8,2.8-0.8
		c1.3,0,4.7,3.2,4.7,4.7c0,1.2-1.9,1.3-2.6,1.6c-1.3,0.5-3.1,1.3-5.2,2.1c0.1,0.2,0.1,0.5,0,0.7c-2.3,5.5-6.7,10.9-13.8,13.7
		l-0.3-0.4c5.1-3.9,9-11.3,9-13c0-0.9-0.9-1.5-1.9-2v-0.3c0.5-0.3,1.2-0.5,2.1-0.5c1.6,0,2.9,0.4,3.7,0.7c1.2-1.2,2.1-2.4,2.6-3.5
		c0.3-0.6,0.1-0.8-0.4-0.8c-1,0-7.2,1.6-9.5,2.4c-1.1,0.4-1.8,1.1-2.8,1.1c-1.3,0-3.1-1.7-3.5-3.1C246.3,65.2,246.2,64.3,246.5,63.4
		L246.5,63.4z M287.3,54c1.1-0.1,2.4-0.2,3.7,0.1c2.3,0.6,4.7,2.9,4.7,4.4c0,1.3-1,1.3-2,2.2c-1.2,1.2-3,3.1-5.1,5
		c1.3,0.9,2.3,1.7,2.3,2.4c0,0.7-0.3,1.4-0.4,2.6c-0.1,4.6,0.2,9.6,0.2,11.3c0,1.6-0.9,2.9-2.5,2.9c-2.2,0-3.2-1.9-3.2-4
		c0-0.7,0.2-1.6,0.4-2.8c0.5-4.1,0.5-7.1,0.5-8.7c0-0.5,0-0.9-0.1-1.2c-2.7,2.2-8.5,6.2-14.8,8l-0.4-0.6c6.9-4,15-12.2,17.7-16.7
		c0.6-1,0.9-1.8,0.9-2.3c0-0.7-1.2-1.5-2.1-2L287.3,54z M306.2,62.3v-0.5c0.9-0.4,1.9-0.8,3.1-0.8c1.8,0,5.5,1.9,5.5,3.6
		c0,1-0.8,1.9-1,2.8c-1.2,6.4-5.5,12.9-13.5,16.6l-0.4-0.4c5.4-5.2,8.8-13,8.8-18.6C308.6,63.8,307.6,63,306.2,62.3z M314.2,57.6
		c1.3-0.8,2.1-1,3.2-1c2.2,0,5.4,2.1,5.4,3.5c0,1-1,1.3-1.2,2.7c-0.4,2.3-0.6,8.8-0.5,11.3c0,0.6,0.3,0.8,0.9,0.6
		c3.4-1.3,8.2-4.6,12.7-8.3l0.5,0.4c-3,5.3-8,10-12.2,13.2c-0.8,0.6-1.6,1.9-2.7,1.9c-1.6,0-4.1-3.1-4.1-4.4c0-0.9,0.5-1.5,0.7-2.9
		c0.2-1.6,0.3-10.5,0.1-14c-0.1-1.1-1-1.9-2.7-2.4L314.2,57.6z"/>
</g>
</svg>
