<?xml version="1.0" encoding="utf-8"?>
<!-- Generator: Adobe Illustrator 24.0.1, SVG Export Plug-In . SVG Version: 6.00 Build 0)  -->
<svg version="1.1" id="Layer_1" xmlns="http://www.w3.org/2000/svg" xmlns:xlink="http://www.w3.org/1999/xlink" x="0px" y="0px"
	 viewBox="0 0 1293 1488.5" style="enable-background:new 0 0 1293 1488.5;" xml:space="preserve">
<style type="text/css">
	.st0{fill:#171717;}
</style>
<g>
	<g>
		<polygon class="st0" points="961.5,1255.4 731.2,1255.4 718.3,1319.7 897.3,1319.7 		"/>
		<polygon class="st0" points="574.7,1319.7 561.8,1255.4 453.3,1255.4 447.1,1255.4 442.7,1251 431.3,1239.7 428.9,1239.7 
			401.5,1212.3 329.7,1253.7 395.7,1319.7 		"/>
		<polygon class="st0" points="41.1,463.5 41.1,965 170,1093.9 203.1,1013.9 121.1,931.9 121.1,496.6 162.2,455.5 162.2,342.4 		"/>
		<rect x="638.8" y="1239.7" class="st0" width="15.5" height="80"/>
		<rect x="638.8" y="1340.8" class="st0" width="15.5" height="20"/>
		<polygon class="st0" points="161.3,1115 20,973.8 20,454.7 387,87.8 586.2,87.8 594.4,67.8 387,67.8 378.7,67.8 372.9,73.6 
			5.9,440.6 0,446.5 0,454.7 0,973.8 0,982 5.9,987.9 153,1135 		"/>
		<polygon class="st0" points="1287.2,440.6 920.2,73.6 914.3,67.8 906,67.8 698.6,67.8 706.9,87.8 906,87.8 1273,454.7 1273,973.8 
			1131.8,1115 1140,1135 1287.2,987.9 1293,982 1293,973.8 1293,454.7 1293,446.5 		"/>
		<polygon class="st0" points="982.2,1264.6 906,1340.8 714.1,1340.8 710.1,1360.8 906,1360.8 914.3,1360.8 920.2,1354.9 
			1000.1,1275 		"/>
		<polygon class="st0" points="271.5,233.1 384.6,233.1 428.9,188.8 544.3,188.8 577.4,108.8 395.7,108.8 		"/>
		<polygon class="st0" points="578.9,1340.8 387,1340.8 310.8,1264.6 292.9,1275 372.9,1354.9 378.7,1360.8 387,1360.8 
			582.9,1360.8 		"/>
		<polygon class="st0" points="1251.9,463.5 897.3,108.8 715.6,108.8 748.7,188.8 864.1,188.8 1171.9,496.6 1171.9,931.9 
			1130.8,973 1130.8,1086.2 1251.9,965 		"/>
	</g>
	<g>
		<path class="st0" d="M855.3,446.6h62.1v150.1l198.5,479.8V467.2c-85.6-85.6-133.6-133.6-219.1-219.1H773.2L855.3,446.6z"/>
		<path class="st0" d="M375.7,596.6V446.6h62.1l82.1-198.5H250.4c-28.6,28.6-44.6,44.6-73.2,73.2v643c11.4,11.4,22.3,22.3,32.8,32.8
			L375.7,596.6z"/>
		<path class="st0" d="M706.1,1105.2l-0.6-0.3c-11,11-22.6,22.6-36.3,36.3v347.3l49.6-248.1h221.4L706.1,1105.2z"/>
		<path class="st0" d="M586.9,1105.2l-170.4,98.4c11.7,11.7,23.9,23.9,36.8,36.8h120.8l49.6,248.1v-404.6L586.9,1105.2z"/>
	</g>
	<polygon id="A" class="st0" points="1178,1331.5 646.5,46.5 115,1331.5 566.9,1070.6 335.6,1070.6 598.4,435.1 646.5,435.1 
		694.6,435.1 957.4,1070.6 726.1,1070.6 	"/>
</g>
</svg>
