<?xml version="1.0" encoding="utf-8"?>
<!-- Generator: Adobe Illustrator 24.0.1, SVG Export Plug-In . SVG Version: 6.00 Build 0)  -->
<svg version="1.1" id="Layer_1" xmlns="http://www.w3.org/2000/svg" xmlns:xlink="http://www.w3.org/1999/xlink" x="0px" y="0px"
	 viewBox="0 0 1293 480.6" style="enable-background:new 0 0 1293 480.6;" xml:space="preserve">
<style type="text/css">
	.st0{fill:#171717;}
	.st1{fill:#DC2727;}
</style>
<g>
	<g>
		<path class="st0" d="M189.5,123c-5.5-3.3-11.7-4.9-18.4-4.9c-9.6,0-18.9,2.1-27.7,6.3c-8.8,4.2-16.9,10.9-24.4,20.1
			c-2.7-9.9-7.1-16.8-13.2-20.6c-6.1-3.9-13.1-5.8-20.8-5.8c-8.9,0-17.6,1.9-26,5.8c-8.4,3.9-16.2,9.8-23.1,17.7v-19.9H0v209.1h35.8
			V160.5c5.1-5.3,10.4-9.5,16.1-12.5c5.7-3,11.2-4.5,16.5-4.5c5.5,0,9.9,1.8,13.2,5.2c3.3,3.5,4.9,10.3,4.9,20.4v161.7h35.4V166.6
			c0-1.2,0-2.3,0-3.3c0-1,0-1.9,0-2.9c4.8-5.3,10.1-9.5,15.9-12.5c5.8-3,11.3-4.5,16.6-4.5c5.5,0,9.9,1.8,13.2,5.2
			c3.3,3.5,4.9,10.3,4.9,20.4v161.7H208V166.6c0-11.6-1.7-20.9-5.1-28C199.5,131.5,195.1,126.3,189.5,123z"/>
		<path class="st0" d="M643.1,155.4c2.2,4.1,3.3,9.9,3.3,17.4v124.4L685,231v-69.5c0-6.7-0.9-13.4-2.7-19.9
			c-1.8-6.5-4.9-11.9-9.4-16.3c-4.5-4.3-10.8-6.5-19-6.5c-10.6,0-20.3,2.4-28.9,7.2c-8.7,4.8-16.5,10.6-23.5,17.4V37.9h-38.7v293
			h38.7V163c4.3-3.9,9-7.1,13.9-9.8c4.9-2.7,9.7-4,14.3-4C636.4,149.3,640.9,151.3,643.1,155.4z"/>
		<path class="st0" d="M525,299.4c-0.4-6-0.5-12.3-0.5-18.8v-95.5c0-21.5-4.3-37.9-13-49.2c-8.7-11.3-23.4-17-44.1-17
			c-21.2,0-36.9,5.5-47,16.5c-10.1,11-15.4,28-15.9,51.2l38.3,1.4v-10.5c0-6,0.7-11.3,2.2-15.7c1.4-4.5,3.8-7.9,7.1-10.3
			c3.3-2.4,7.5-3.6,12.8-3.6c6,0,10.5,1.4,13.6,4.2c3,2.8,5,6.9,6,12.5c1,5.5,1.4,12.5,1.4,21v14.8c-11.1,4.3-21.6,8.8-31.6,13.4
			c-10,4.6-18.8,9.9-26.4,16.1c-7.6,6.1-13.6,13.7-17.9,22.6c-4.3,8.9-6.5,19.9-6.5,32.9c0,8.2,1.8,16,5.4,23.3
			c3.6,7.4,8.6,13.4,14.8,18.1c6.3,4.7,13.5,7.1,21.7,7.1c12.1,0,21.5-3.6,28.4-10.7c6.9-7.1,11.5-14.8,13.9-23
			c0.5,4.8,1.3,10.2,2.4,16.1c1.1,5.9,2,10.8,2.7,14.6h35.4c-0.5-4.6-1-9.5-1.6-14.6C525.8,311,525.3,305.4,525,299.4z M485.7,283.1
			c-1,1.7-2.8,3.9-5.4,6.7c-2.7,2.8-5.7,5.2-9,7.4c-3.4,2.2-7,3.3-10.9,3.3c-6,0-10.6-2.4-13.7-7.2c-3.1-4.8-4.7-11.4-4.7-19.9
			c0-6,1.1-11.4,3.4-16.1c2.3-4.7,5.4-8.9,9.4-12.7c4-3.7,8.6-7.3,13.9-10.7c5.3-3.4,11-6.7,17-10.1V283.1z"/>
		<path class="st0" d="M364.9,148.7c-3.1-8.6-7.9-15.7-14.3-21.3c-6.4-5.7-15-8.5-25.9-8.5c-8.9,0-16.6,1.9-23,5.8
			c-6.4,3.9-11.9,8.4-16.5,13.7V37.9h-38.7v293h38.7v-15.2c4.3,4.6,9.5,8.7,15.4,12.5c5.9,3.7,12.6,5.6,20.1,5.6
			c13.7,0,24.4-4,31.8-12.1c7.5-8.1,12.7-18.7,15.6-31.8c2.9-13.1,4.3-27.1,4.3-41.8v-50.6c0-6.3-0.5-13.8-1.4-22.6
			C370.1,166,368.1,157.3,364.9,148.7z M333.8,248c0,10.1-0.4,19.4-1.1,27.9c-0.7,8.4-2.5,15.1-5.4,20.1c-2.9,4.9-7.7,7.4-14.5,7.4
			c-5.5,0-10.7-0.9-15.4-2.7c-4.7-1.8-8.7-4-12.1-6.7V159.8c3.4-2.7,7.3-5.1,11.8-7.2c4.5-2.2,9.2-3.3,14.3-3.3
			c6.7,0,11.7,2.2,14.8,6.5c3.1,4.3,5.2,10.2,6.1,17.5c1,7.4,1.4,15.4,1.4,24.1V248z"/>
	</g>
	<g>
		<polygon class="st0" points="796.4,207.1 810.5,311.3 779.4,311.3 792.9,212.6 718.2,328.3 702.4,411.8 763.5,411.8 773.6,350 
			816.7,350 826.4,411.8 886.1,411.8 836.4,145.1 		"/>
		<rect x="1048.5" y="202.8" class="st0" width="59" height="209.1"/>
		<path class="st0" d="M1014.2,200.3c-9.6,0-17.8,3.2-24.6,9.6c-6.8,6.4-13.5,15.6-20.3,27.7v-34.7h-59v209.1h59v-136
			c4.8-6.3,10.1-11.2,15.9-14.8c5.8-3.6,12.1-5.4,18.8-5.4c3.6,0,7.1,0.4,10.3,1.3c3.3,0.8,6.2,1.9,8.9,3.1v-58.6
			c-1.2-0.5-2.5-0.8-4-0.9C1017.8,200.3,1016.1,200.3,1014.2,200.3z"/>
		<path class="st0" d="M1290.5,236.8c-1.7-7.5-4.3-14-8-19.7c-3.6-5.7-8.3-10.1-13.9-13.2c-5.7-3.1-12.5-4.7-20.4-4.7
			c-7.2,0-14.8,1.6-22.8,4.7c-8,3.1-15.4,7.8-22.4,14.1v-15.2h-59v277.8h59v-84.6c7,6,14.3,10.8,21.9,14.3s15.1,5.2,22.6,5.2
			c9.9,0,18.2-2.7,25-8.1c6.7-5.4,11.9-13,15.4-22.6c3.5-9.6,5.2-21,5.2-34v-90.1C1293,252.2,1292.2,244.3,1290.5,236.8z
			 M1234.1,354c0,4.3-0.5,8.3-1.6,11.8c-1.1,3.5-2.7,6.3-4.9,8.5c-2.2,2.2-5.2,3.3-9,3.3c-2.7,0-5.2-0.5-7.8-1.4
			c-2.5-1-5.1-2.3-7.8-4V241.9c2.4-2.2,5-3.9,7.8-5.2c2.8-1.3,5.7-2,8.9-2c3.4,0,6.1,1,8.3,2.9c2.2,1.9,3.7,4.5,4.7,7.8
			c1,3.3,1.4,6.9,1.4,11V354z"/>
		<path class="st0" d="M1048.1,150.8v26.6h45.1c5.6-5.6,8.7-8.7,14.2-14.2v-26.6h-45.1C1056.8,142.1,1053.7,145.2,1048.1,150.8z"/>
	</g>
	<g>
		<g>
			<polygon class="st1" points="827.8,0 636.8,330.8 608.5,330.8 777.7,37.9 			"/>
		</g>
	</g>
	<g>
		<g>
			<polygon class="st1" points="617.3,475.8 808.3,145 836.5,145 667.4,438 			"/>
		</g>
	</g>
</g>
</svg>
